<?xml version="1.0" standalone="no"?>
<!DOCTYPE svg PUBLIC "-//W3C//DTD SVG 1.1//EN" "http://www.w3.org/Graphics/SVG/1.1/DTD/svg11.dtd" >
<svg xmlns="http://www.w3.org/2000/svg" xmlns:xlink="http://www.w3.org/1999/xlink" version="1.1">
<metadata>
Created by FontForge 20161003 at Sat Sep 16 20:51:35 2017
 By www-data
Zenze Media (c) 2011
</metadata>
<defs>
<font id="SVNServeticaMedium" horiz-adv-x="278" >
  <font-face 
    font-family="SVNServeticaMedium"
    font-weight="400"
    font-stretch="normal"
    units-per-em="1000"
    panose-1="2 11 6 4 2 2 2 2 2 4"
    ascent="714"
    descent="-286"
    x-height="517"
    cap-height="714"
    bbox="-165 -223 1067 1106"
    underline-thickness="50"
    underline-position="-150"
    unicode-range="U+000D-FB02"
  />
<missing-glyph horiz-adv-x="512" 
d="M278 117h-56v67h56v-67zM271 234h-46l-2 17q0 56 13 81q14 27 46 59q50 48 50 83t-23 61q-23 24 -53 24q-71 0 -82 -95l-50 8q14 137 135 137q55 0 89 -36q35 -37 35 -95q0 -62 -63 -120q-37 -33 -43 -52q-6 -20 -6 -72zM50 50h412v617h-412v-617zM0 718h512v-718h-512
v718z" />
    <glyph glyph-name="IJ" unicode="IJ" 
 />
    <glyph glyph-name="ij" unicode="ij" 
 />
    <glyph glyph-name="napostrophe" unicode="&#x22;n" 
 />
    <glyph glyph-name="fi" unicode="fi" horiz-adv-x="556" 
d="M378 606v108h114v-108h-114zM9 432v85h85v43q0 89 44 127q33 27 99 27q58 0 80 -7v-89q-23 6 -53 6q-56 0 -56 -54v-53h97v-85h-97v-432h-114v432h-85zM378 0v517h114v-517h-114z" />
    <glyph glyph-name="fl" unicode="fl" horiz-adv-x="556" 
d="M378 0v714h114v-714h-114zM9 432v85h85v43q0 89 44 127q33 27 99 27q58 0 80 -7v-89q-23 6 -53 6q-56 0 -56 -54v-53h97v-85h-97v-432h-114v432h-85z" />
    <glyph glyph-name=".notdef" horiz-adv-x="512" 
d="M278 117h-56v67h56v-67zM271 234h-46l-2 17q0 56 13 81q14 27 46 59q50 48 50 83t-23 61q-23 24 -53 24q-71 0 -82 -95l-50 8q14 137 135 137q55 0 89 -36q35 -37 35 -95q0 -62 -63 -120q-37 -33 -43 -52q-6 -20 -6 -72zM50 50h412v617h-412v-617zM0 718h512v-718h-512
v718z" />
    <glyph glyph-name="uni0000" horiz-adv-x="500" 
 />
    <glyph glyph-name="uni0000" horiz-adv-x="500" 
 />
    <glyph glyph-name="uni000D" unicode="&#xd;" horiz-adv-x="0" 
 />
    <glyph glyph-name="space" unicode=" " 
 />
    <glyph glyph-name="exclam" unicode="!" 
d="M72 0v125h134v-125h-134zM77 508v206h125v-206l-33 -309h-59z" />
    <glyph glyph-name="quotedbl" unicode="&#x22;" horiz-adv-x="444" 
d="M259 432v282h102v-282h-102zM83 432v282h102v-282h-102z" />
    <glyph glyph-name="numbersign" unicode="#" horiz-adv-x="556" 
d="M386 698h81l-30 -209h86v-75h-96l-18 -130h85v-75h-95l-30 -209h-80l29 209h-110l-29 -209h-80l29 209h-94v75h295l18 130h-111l-9 -69h-80l10 69h-94v75h104l29 209h80l-30 -209h111z" />
    <glyph glyph-name="dollar" unicode="$" horiz-adv-x="556" 
d="M303 641v-211q111 -30 164 -69q73 -55 73 -153q0 -179 -176 -217v96q62 29 62 105q0 82 -122 114v-233v-90v-78h-44v78q-112 2 -176 63q-68 63 -66 171h114q-1 -139 128 -144v242q-105 29 -154 66q-73 55 -73 154q0 77 49 127q45 48 119 63v-93q-54 -21 -54 -89
q0 -76 113 -102v116v252h43v-78q97 0 155 -48q64 -52 64 -147h-114q-4 105 -105 105z" />
    <glyph glyph-name="uni0025" unicode="%" horiz-adv-x="1000" 
d="M260 -24l389 748h76l-387 -748h-78zM724 57v-68q-70 9 -106 66q-32 50 -32 129q0 86 39 139q44 59 127 59q82 0 126 -59q40 -52 40 -139q0 -79 -31 -128q-35 -56 -103 -67v71q44 27 44 124q0 133 -77 133q-76 0 -76 -133q0 -105 49 -127zM221 388v-68q-70 9 -106 66
q-32 50 -32 129q0 87 39 139q44 59 127 59q82 0 126 -59q40 -52 40 -139q0 -79 -31 -128q-35 -56 -103 -67v71q44 27 44 124q0 133 -77 133q-76 0 -76 -133q0 -105 49 -127z" />
    <glyph glyph-name="ampersand" unicode="&#x26;" horiz-adv-x="648" 
d="M397 155l-140 174q-65 -39 -71 -45q-40 -34 -40 -89q0 -58 33 -89q32 -32 83 -32q58 0 95 33l57 -72q-64 -51 -156 -51q-101 0 -163 56q-63 58 -63 157q0 111 135 191l125 59q84 57 84 117q0 35 -20 58q-21 24 -53 24q-33 0 -55 -22t-22 -57q0 -33 27 -70l-91 -46
q-38 58 -38 110q0 76 51 124q49 46 125 46q74 0 123 -42q55 -46 55 -129q0 -112 -129 -182l111 -134q18 54 22 96h100q-11 -104 -56 -175l138 -167h-141z" />
    <glyph glyph-name="quotesingle" unicode="'" 
d="M88 432v282h102v-282h-102z" />
    <glyph glyph-name="parenleft" unicode="(" 
d="M286 -191h-93q-144 233 -144 461q0 240 144 461h93q-123 -221 -123 -461q0 -253 123 -461z" />
    <glyph glyph-name="parenright" unicode=")" 
d="M-8 731h93q144 -229 144 -462q0 -241 -144 -460h-93q123 221 123 460q0 251 -123 462z" />
    <glyph glyph-name="asterisk" unicode="*" horiz-adv-x="370" 
d="M130 534l-111 38l22 65l110 -43v120h68v-120l109 43l24 -65l-114 -38l70 -94l-53 -39l-71 98l-68 -98l-56 39z" />
    <glyph glyph-name="plus" unicode="+" horiz-adv-x="600" 
d="M249 304v202h102v-202h201v-102h-201v-202h-102v202h-201v102h201z" />
    <glyph glyph-name="comma" unicode="," 
d="M69 0v135h139v-135q-2 -62 -38 -104t-97 -54v61q67 16 65 97h-69z" />
    <glyph glyph-name="hyphen" unicode="-" horiz-adv-x="389" 
d="M49 218v108h291v-108h-291z" />
    <glyph glyph-name="period" unicode="." 
d="M69 0v135h139v-135h-139z" />
    <glyph glyph-name="slash" unicode="/" horiz-adv-x="352" 
d="M-22 -17l287 748h109l-287 -748h-109z" />
    <glyph glyph-name="zero" unicode="0" horiz-adv-x="556" 
d="M473 110q-62 -122 -196 -122t-196 122q-45 92 -45 241q0 141 41 232l86 -86q-13 -56 -13 -146q0 -268 127 -268q128 0 128 268t-128 268q-61 0 -92 -60l-76 77q61 78 168 78q134 0 196 -122q46 -91 46 -241t-46 -241z" />
    <glyph glyph-name="one" unicode="1" horiz-adv-x="440" 
d="M42 494v90q181 0 204 116h93v-700h-125v494h-172z" />
    <glyph glyph-name="two" unicode="2" horiz-adv-x="556" 
d="M517 102v-102h-478q1 162 154 265q3 3 12 9t26.5 17.5t32.5 22.5q43 29 68 50q71 62 72 131q0 124 -118 124q-116 0 -120 -175h-114q0 119 62 193q65 77 179 77q115 0 177 -74q48 -58 48 -141q0 -128 -157 -236l-60 -40q-35 -22 -56 -38q-57 -44 -69 -83h341z" />
    <glyph glyph-name="three" unicode="3" horiz-adv-x="556" 
d="M228 325v85q66 -3 106 22q49 28 49 88q0 45 -30 72q-31 27 -79 27q-56 0 -89 -44q-29 -41 -27 -99h-114q5 105 65 170q65 68 167 68q89 0 151 -47q70 -52 70 -140q0 -115 -99 -150v-2q59 -12 94 -59q33 -46 33 -116q0 -96 -74 -156q-70 -58 -174 -58q-119 0 -183 67
q-62 65 -63 177h114q-2 -67 32 -106q34 -43 100 -43q59 0 96 33q38 35 38 92q0 125 -183 119z" />
    <glyph glyph-name="four" unicode="4" horiz-adv-x="556" 
d="M323 701h109v-384h-109v248h-2l-210 -309h212v1h109v-1h90v-90h-90v-166h-109v166h-300v113z" />
    <glyph glyph-name="five" unicode="5" horiz-adv-x="556" 
d="M48 317l75 383h362v-102h-277l-36 -178l2 -2q47 53 129 53q102 0 162 -67q57 -64 57 -167q0 -96 -56 -167q-68 -84 -186 -84q-105 0 -171 54q-69 56 -74 159h114q10 -118 129 -118q130 0 130 154q0 61 -32 102q-36 44 -101 44q-88 0 -113 -64h-114z" />
    <glyph glyph-name="six" unicode="6" horiz-adv-x="556" 
d="M215 440q40 20 86 20q101 0 163 -68q58 -64 58 -167q0 -104 -64 -171q-65 -68 -169 -68q-143 0 -204 106q-51 88 -51 260q0 147 58 244q70 118 206 118q83 0 145 -53q61 -54 66 -138h-114q-5 43 -30 69q-29 27 -72 27q-118 0 -140 -193q-2 -12 -4 -38l-1 -9
q-7 -122 16 -194q10 -46 40 -74q33 -30 81 -30q59 0 93 45q30 40 30 101q0 59 -30 100q-34 43 -93 43q-47 0 -78 -27q2 62 8 97z" />
    <glyph glyph-name="seven" unicode="7" horiz-adv-x="556" 
d="M35 598v102h479v-95q-235 -265 -261 -605h-125q22 319 270 598h-363z" />
    <glyph glyph-name="eight" unicode="8" horiz-adv-x="556" 
d="M240 420l162 -44q57 -16 90 -60q33 -45 33 -109q0 -100 -70 -161q-67 -58 -177 -58q-109 0 -176 58q-70 61 -70 161q0 85 55 133l106 -35q-47 -35 -47 -98q0 -60 38 -95q35 -34 94 -34q60 0 95 34q38 35 38 95q0 93 -88 117l-163 55v1q-99 38 -99 144q0 90 56 140
q58 50 161 50t161 -50q57 -50 57 -140q0 -60 -36 -101l-96 26q24 27 24 69q0 49 -32 79q-30 27 -78 27q-47 0 -77 -27q-32 -30 -32 -79q0 -78 71 -98z" />
    <glyph glyph-name="nine" unicode="9" horiz-adv-x="556" 
d="M340 261q-38 -20 -86 -20q-101 0 -163 68q-58 64 -58 168q0 103 64 170q65 69 169 69q143 0 205 -107q51 -87 51 -260q0 -145 -59 -243q-71 -119 -206 -119q-83 0 -145 53q-62 54 -66 138h114q5 -44 31 -69q27 -27 71 -27q119 0 141 193q0 5 1.5 18t2.5 21l1 8l-1 1
q7 124 -15 193q-11 48 -40 74q-32 31 -82 31q-59 0 -92 -45q-31 -40 -31 -101q0 -62 31 -100q33 -44 92 -44q48 0 79 27q-1 -55 -9 -97z" />
    <glyph glyph-name="colon" unicode=":" 
d="M69 0v135h139v-135h-139zM69 371v135h139v-135h-139z" />
    <glyph glyph-name="semicolon" unicode=";" 
d="M69 371v135h139v-135h-139zM69 0v135h139v-135q-2 -62 -38 -104t-97 -54v61q67 16 65 97h-69z" />
    <glyph glyph-name="less" unicode="&#x3c;" horiz-adv-x="600" 
d="M554 94v-102l-508 225v72l508 225v-102l-374 -159z" />
    <glyph glyph-name="equal" unicode="=" horiz-adv-x="600" 
d="M552 203v-102h-504v102h504zM552 405v-102h-504v102h504z" />
    <glyph glyph-name="greater" unicode="&#x3e;" horiz-adv-x="600" 
d="M46 94l374 159l-374 159v102l508 -225v-72l-508 -225v102z" />
    <glyph glyph-name="question" unicode="?" horiz-adv-x="556" 
d="M208 0v125h134v-125h-134zM163 487h-114q0 110 65 177q64 67 175 67q94 0 155 -53q63 -55 63 -149q0 -64 -28 -104q-14 -22 -60 -62q-49 -41 -63 -65q-25 -38 -25 -104h-108q0 137 78 203q48 42 56 53q25 31 25 75q0 55 -36 86q-28 25 -62 25q-121 0 -121 -149z" />
    <glyph glyph-name="at" unicode="@" horiz-adv-x="800" 
d="M159 627q108 105 258 105q137 0 234 -82q101 -86 101 -211q0 -136 -88 -224q-74 -74 -148 -74q-39 0 -54 35l35 193q2 18 2 26q0 36 -23 62q-24 26 -56 26q-58 0 -100 -59q-38 -55 -38 -116q0 -40 22 -65q23 -26 58 -26q25 0 49 15l-13 -76q-30 -14 -55 -14
q-62 0 -104 47q-42 45 -42 110q0 101 60 177q64 82 159 82q77 0 112 -72l18 57h70l-72 -263q-9 -28 -9 -46q0 -23 19 -23q49 0 88 62q42 65 42 154q0 109 -78 176q-74 64 -189 64q-126 0 -207 -87q-80 -86 -80 -213q0 -144 85 -232q83 -86 211 -86q140 0 225 99h70
q-101 -164 -299 -164q-156 0 -263 108q-109 109 -109 279q0 150 109 256z" />
    <glyph glyph-name="A" unicode="A" horiz-adv-x="667" 
d="M268 714h133l275 -714h-134l-67 189h-285l-67 -189h-129l110 284h338l-107 307h-3l-86 -245h-119z" />
    <glyph glyph-name="B" unicode="B" horiz-adv-x="704" 
d="M203 102v-102h-125v714h347q98 0 154 -44q58 -46 58 -133q0 -109 -102 -152v-2q134 -29 134 -184q0 -89 -62 -142q-69 -57 -201 -57h-143v102h161q56 0 88 29q32 30 32 84q0 53 -32 82q-31 28 -88 28h-161v90h144q47 0 75 25q30 27 30 74q0 98 -105 98h-204v-197v-90
v-223z" />
    <glyph glyph-name="C" unicode="C" horiz-adv-x="722" 
d="M683 487h-125q-36 142 -178 142q-108 0 -166 -85q-51 -74 -51 -187t51 -187q58 -85 166 -85q80 0 129 55q44 50 53 132h122q-7 -129 -91 -209q-85 -80 -213 -80q-155 0 -251 110q-91 104 -91 264q0 159 91 263q96 111 251 111q124 0 206 -64q85 -67 97 -180z" />
    <glyph glyph-name="D" unicode="D" horiz-adv-x="722" 
d="M201 611v-611h-125v713h296q156 0 239 -104q75 -95 75 -253t-75 -252q-83 -104 -239 -104h-114v102h66q137 0 192 73q45 60 45 181q0 122 -45 182q-55 73 -192 73h-123z" />
    <glyph glyph-name="E" unicode="E" horiz-adv-x="630" 
d="M76 0v714h514v-108h-389v-187h360v-102h-360v-209h396v-108h-521z" />
    <glyph glyph-name="F" unicode="F" horiz-adv-x="593" 
d="M76 0v714h493v-108h-368v-187h323v-102h-323v-317h-125z" />
    <glyph glyph-name="G" unicode="G" horiz-adv-x="759" 
d="M699 376v-376h-80l-19 84q-89 -101 -215 -101q-155 0 -251 110q-91 104 -91 264q0 159 91 263q96 111 251 111q121 0 204 -62q88 -66 102 -182h-122q-9 67 -63 106q-50 36 -121 36q-108 0 -166 -85q-51 -74 -51 -187t51 -187q58 -85 166 -85q95 -2 147 52q52 52 53 144
h-190v95h304z" />
    <glyph glyph-name="H" unicode="H" horiz-adv-x="722" 
d="M522 713h125v-715h-125v322h-265v109h265v284zM74 713h125v-284v-109v-322h-125v715z" />
    <glyph glyph-name="I" unicode="I" 
d="M76 0v714h125v-714h-125z" />
    <glyph glyph-name="J" unicode="J" horiz-adv-x="537" 
d="M461 714v-484q0 -112 -41 -170q-56 -77 -194 -77q-107 0 -163 65q-50 61 -50 164v38h125v-37q0 -64 21 -94q22 -34 77 -34q58 0 80 36q20 31 20 102v491h125z" />
    <glyph glyph-name="K" unicode="K" horiz-adv-x="685" 
d="M426 375l266 -375h-154l-197 287zM517 713h154l-471 -473v-240h-125v713h125v-325z" />
    <glyph glyph-name="L" unicode="L" horiz-adv-x="574" 
d="M76 0v714h125v-606h363v-108h-488z" />
    <glyph glyph-name="M" unicode="M" horiz-adv-x="889" 
d="M698 714h118v-713h-119v304h1v409zM74 714h176l196 -558h2l188 545v-309l-141 -391h-102l-198 550h-2v-550h-119v713z" />
    <glyph glyph-name="N" unicode="N" horiz-adv-x="722" 
d="M72 713h132l271 -437v-206l-281 454h-3v-524h-119v713zM533 713h119v-713h-119v713z" />
    <glyph glyph-name="O" unicode="O" horiz-adv-x="760" 
d="M633 621q91 -106 91 -264q0 -161 -94 -267l-86 75q55 74 55 192q0 115 -51 188q-58 85 -166 85q-109 0 -167 -85q-51 -73 -51 -188q0 -113 51 -187q58 -85 167 -85q70 0 120 37l84 -73q-87 -66 -204 -66q-156 0 -252 110q-91 104 -91 264q0 158 91 264q96 111 252 111
q155 0 251 -111z" />
    <glyph glyph-name="P" unicode="P" horiz-adv-x="667" 
d="M77 714h315q136 0 198 -77q45 -55 45 -144q0 -87 -45 -143q-61 -76 -198 -76h-126v102h119q51 0 83 25q42 31 42 93q0 118 -123 118h-185v-612h-125v714z" />
    <glyph glyph-name="Q" unicode="Q" horiz-adv-x="760" 
d="M129 621q96 111 251 111t251 -111q91 -104 91 -263q0 -137 -64 -229l-92 80q31 63 31 149q0 114 -51 187q-58 85 -166 85t-166 -85q-51 -73 -51 -187t51 -187q58 -85 166 -85q44 0 80 17l-72 63l59 68l265 -231l-60 -67l-104 91q-73 -43 -168 -43q-155 0 -251 110
q-91 104 -91 264q0 159 91 263z" />
    <glyph glyph-name="R" unicode="R" horiz-adv-x="704" 
d="M76 714h341q115 0 177 -51q59 -50 59 -142q0 -141 -118 -180v-2q40 -4 69 -35q37 -40 37 -116q0 -146 39 -188h-134q-19 31 -19 105q0 104 -28 144q-31 45 -114 45h-124v95h145q122 0 122 114q0 63 -38 89q-29 20 -86 20h-203v-612h-125v714z" />
    <glyph glyph-name="S" unicode="S" horiz-adv-x="648" 
d="M33 238h125q0 -78 53 -117q47 -36 128 -36q77 0 117 34q34 28 34 74q0 65 -59 88q-17 6 -213 59q-158 41 -158 181q0 101 82 159q74 51 179 51q117 0 193 -58q81 -63 81 -170h-125q-10 126 -154 126q-53 0 -87 -19q-44 -26 -44 -74q0 -67 85 -92q-10 3 93 -24
q100 -27 113 -31q67 -21 104 -73q35 -50 35 -109q0 -112 -89 -172q-76 -52 -195 -52q-130 0 -209 61q-88 68 -89 194z" />
    <glyph glyph-name="T" unicode="T" horiz-adv-x="593" 
d="M11 603v108h576v-108h-576zM236 0v541h125v-541h-125z" />
    <glyph glyph-name="U" unicode="U" horiz-adv-x="722" 
d="M68 257v457h125v-416q0 -96 23 -139q38 -68 145 -68t145 68q23 43 23 139v416h125v-457q0 -134 -80 -206q-77 -68 -213 -68q-135 0 -212 68q-81 72 -81 206z" />
    <glyph glyph-name="V" unicode="V" horiz-adv-x="611" 
d="M-3 713h130l179 -564l46 -149h-117zM341 253l150 462h125l-219 -641z" />
    <glyph glyph-name="W" unicode="W" horiz-adv-x="944" 
d="M761 70l-54 218l104 426h127zM409 714h128l181 -712h-104l-142 544h-2l-146 -544h-129l-187 712h127l128 -544h2z" />
    <glyph glyph-name="X" unicode="X" horiz-adv-x="648" 
d="M493 714h140l-236 -344l253 -370h-152l-178 273l-181 -273h-120l305 462zM13 713h149l126 -196l-69 -104z" />
    <glyph glyph-name="Y" unicode="Y" horiz-adv-x="648" 
d="M-7 713h146l155 -263l-66 -117zM511 711h139l-265 -431v-278h-124v274l108 190z" />
    <glyph glyph-name="Z" unicode="Z" horiz-adv-x="630" 
d="M54 715h396l-93 -107h-303v107zM534 714h63v-95l-415 -510h425v-108h-584v102l380 461z" />
    <glyph glyph-name="bracketleft" unicode="[" horiz-adv-x="296" 
d="M72 -191v922h223v-90h-115v-742h115v-90h-223z" />
    <glyph glyph-name="backslash" unicode="\" horiz-adv-x="352" 
d="M87 731l287 -748h-109l-287 748h109z" />
    <glyph glyph-name="bracketright" unicode="]" horiz-adv-x="296" 
d="M224 731v-922h-223v90h115v742h-115v90h223z" />
    <glyph glyph-name="asciicircum" unicode="^" horiz-adv-x="600" 
d="M186 335h-102l180 365h72l180 -365h-102l-114 247z" />
    <glyph glyph-name="underscore" unicode="_" horiz-adv-x="500" 
d="M500 -125h-500v50h500v-50z" />
    <glyph glyph-name="grave" unicode="`" horiz-adv-x="241" 
d="M-29 732h134l91 -143h-83z" />
    <glyph glyph-name="a" unicode="a" horiz-adv-x="556" 
d="M388 48q-64 -63 -179 -63q-74 0 -124 38q-54 41 -54 114q0 86 64 125q42 26 136 36q18 4 59 9q40 5 50 8q46 13 46 56q0 71 -107 71t-115 -83h-114q6 94 78 137q58 36 158 36q87 0 142 -34q66 -40 66 -117v-16q-4 -31 -44 -66q-34 -28 -71 -42q-38 -18 -140 -29
q-94 -15 -94 -86q0 -35 38 -53q30 -14 68 -14q46 0 83 22q45 29 45 77v17q73 29 115 65v-142q0 -20 5 -30q6 -9 22 -9h12l16 2v-79q-36 -13 -72 -13q-77 0 -89 63z" />
    <glyph glyph-name="b" unicode="b" horiz-adv-x="611" 
d="M180 450q52 81 154 81q116 0 181 -80q60 -74 60 -194q0 -113 -54 -188q-61 -82 -168 -82q-74 0 -121 26v94q36 -30 87 -30q73 0 110 57q32 50 32 125q0 73 -36 126q-41 56 -106 56q-72 0 -109 -49q-36 -48 -36 -133v-258h-110v713h114v-264h2z" />
    <glyph glyph-name="c" unicode="c" horiz-adv-x="556" 
d="M523 344h-114q-13 97 -118 97q-56 0 -93 -35q-49 -48 -49 -153q0 -74 31 -121q38 -56 106 -56q107 0 123 118h114q-31 -208 -237 -208q-118 0 -186 77q-65 73 -65 190q0 124 64 198q68 80 191 80q96 0 157 -46q69 -50 76 -141z" />
    <glyph glyph-name="d" unicode="d" horiz-adv-x="611" 
d="M105 467q61 64 154 64q123 0 172 -81h2v264h113v-713h-109v251h-1l1 7q0 86 -39 134q-37 48 -104 48q-74 0 -113 -59q-32 -50 -32 -129q0 -74 34 -121q39 -55 109 -55q50 0 85 30v-96q-43 -24 -100 -24q-117 0 -182 80q-60 73 -60 195q0 134 70 205z" />
    <glyph glyph-name="e" unicode="e" horiz-adv-x="556" 
d="M414 164h108q-17 -84 -84 -130q-62 -46 -149 -46q-121 0 -188 76q-65 74 -65 196q0 20 3 46h111v-1h265q-5 58 -37 96q-38 41 -92 41q-86 0 -122 -76h-110q27 75 86 119q62 47 146 47q118 0 189 -93q69 -89 54 -208h-379q0 -67 34 -107q37 -46 105 -46q95 0 125 86z" />
    <glyph glyph-name="f" unicode="f" horiz-adv-x="315" 
d="M9 432v85h85v43q0 89 44 127q33 27 99 27q58 0 80 -7v-89q-23 6 -53 6q-56 0 -56 -54v-53h97v-85h-97v-432h-114v432h-85z" />
    <glyph glyph-name="g" unicode="g" horiz-adv-x="593" 
d="M540 26q0 -232 -255 -232q-89 0 -150 35q-73 43 -81 126h114q16 -76 124 -76q134 0 134 132v79h-2q-52 -91 -156 -91q-116 0 -177 81q-55 71 -55 192q0 108 62 182q66 77 172 77q53 0 94 -23v-90q-32 23 -78 23q-70 0 -106 -58q-30 -48 -30 -122q0 -70 33 -118
q37 -54 103 -54q70 0 108 57q32 50 32 124v247h114v-491z" />
    <glyph glyph-name="h" unicode="h" horiz-adv-x="574" 
d="M60 0v714h114v-265h2q49 82 155 82q85 0 134 -44q49 -46 49 -132v-355h-114v325q-5 116 -101 116q-57 0 -91 -39q-34 -38 -34 -97v-305h-114z" />
    <glyph glyph-name="i" unicode="i" horiz-adv-x="241" 
d="M63 606v108h114v-108h-114zM63 0v517h114v-517h-114z" />
    <glyph glyph-name="j" unicode="j" horiz-adv-x="241" 
d="M63 606v108h114v-108h-114zM63 -39v556h114v-561q0 -161 -148 -161q-34 0 -51 4v90q17 -4 39 -4q29 0 38 19q8 16 8 57z" />
    <glyph glyph-name="k" unicode="k" horiz-adv-x="537" 
d="M63 0v714h114v-406l206 209h140l-198 -190l217 -327h-139l-158 251l-68 -66v-185h-114z" />
    <glyph glyph-name="l" unicode="l" horiz-adv-x="241" 
d="M63 0v714h114v-714h-114z" />
    <glyph glyph-name="m" unicode="m" horiz-adv-x="870" 
d="M60 0v517h108v-72h3q59 86 159 86q110 0 145 -86q63 86 162 86q173 0 173 -174v-357h-114v302q0 73 -14 101q-20 38 -80 38q-110 0 -110 -138v-303h-114v332q0 56 -20 82q-21 27 -71 27q-47 0 -79 -35q-34 -37 -34 -99v-307h-114z" />
    <glyph glyph-name="n" unicode="n" horiz-adv-x="574" 
d="M60 0v517h108v-76l2 -2q56 92 161 92q85 0 134 -44q49 -46 49 -132v-355h-114v325q-5 116 -101 116q-57 0 -91 -39q-34 -38 -34 -97v-305h-114z" />
    <glyph glyph-name="o" unicode="o" horiz-adv-x="593" 
d="M499 74l-79 79q24 47 24 106q0 74 -35 124q-40 58 -112 58t-112 -58q-35 -50 -35 -124q0 -75 35 -125q40 -58 112 -58q49 0 86 29l72 -72q-65 -47 -158 -47q-121 0 -192 77q-69 73 -69 196q0 120 69 195q71 77 192 77t192 -77q69 -75 69 -195q0 -111 -59 -185z" />
    <glyph glyph-name="p" unicode="p" horiz-adv-x="611" 
d="M62 518h110v-70v-186v-2v-2q0 -80 38 -130q40 -52 108 -52q72 0 111 57q32 50 32 125q0 74 -36 127q-41 57 -107 57q-53 0 -87 -28v94q43 24 102 24q118 0 182 -81q60 -73 60 -195q0 -113 -54 -188q-62 -83 -169 -83q-125 0 -174 82h-2v-259h-114v710z" />
    <glyph glyph-name="q" unicode="q" horiz-adv-x="611" 
d="M545 -189h-114v258h-2q-52 -81 -172 -81q-108 0 -169 82q-54 74 -54 187q0 120 60 195q65 80 182 80q59 0 103 -26v-92q-34 28 -88 28q-66 0 -107 -56q-36 -52 -36 -127q0 -74 32 -124q38 -57 111 -57q71 0 109 50q35 47 35 131v259h110v-707z" />
    <glyph glyph-name="r" unicode="r" horiz-adv-x="352" 
d="M60 0v517h107v-100h2q11 44 55 78q46 36 96 36q10 0 43 -3v-110q-30 5 -49 5q-60 0 -99 -45q-41 -50 -41 -132v-246h-114z" />
    <glyph glyph-name="s" unicode="s" horiz-adv-x="519" 
d="M32 166h114q9 -90 117 -90q59 0 88 17t27 51q-1 38 -54 58q-7 3 -115 28q-77 16 -114 44q-52 37 -52 109q0 77 73 116q59 32 143 32q87 0 143 -36q64 -40 73 -123h-119q-14 69 -105 69q-94 0 -94 -53q0 -36 53 -56q17 -6 115 -27q76 -18 115 -44q52 -37 52 -107
q0 -85 -75 -130q-64 -38 -156 -38q-101 0 -162 44q-66 49 -67 136z" />
    <glyph glyph-name="t" unicode="t" horiz-adv-x="333" 
d="M8 432v85h86v155h114v-155h103v-85h-103v-276q0 -39 8 -53q10 -18 47 -18q33 0 48 4v-88q-49 -6 -74 -6q-84 0 -115 34q-27 28 -28 98v305h-86z" />
    <glyph glyph-name="u" unicode="u" horiz-adv-x="574" 
d="M514 517v-517h-112v72h-2q-47 -86 -147 -86q-193 0 -193 203v328h114v-317q0 -124 99 -124q127 0 127 141v300h114z" />
    <glyph glyph-name="v" unicode="v" horiz-adv-x="519" 
d="M197 0l-188 517h124l131 -397h2l126 397h118l-185 -517h-128z" />
    <glyph glyph-name="w" unicode="w" horiz-adv-x="778" 
d="M173 0l-160 517h121l101 -386h2l97 386h115l93 -386h2l105 386h116l-162 -517h-117l-96 384h-2l-95 -384h-120z" />
    <glyph glyph-name="x" unicode="x" horiz-adv-x="537" 
d="M4 0l195 272l-179 245h138l108 -159l113 159h132l-176 -239l198 -278h-137l-131 191l-127 -191h-134z" />
    <glyph glyph-name="y" unicode="y" horiz-adv-x="519" 
d="M199 2l-196 515h125l135 -386h2l131 386h119l-201 -545q-38 -94 -60 -123q-44 -54 -123 -54q-40 0 -79 6v96q41 -7 54 -7q59 0 80 72z" />
    <glyph glyph-name="z" unicode="z" horiz-adv-x="500" 
d="M42 427v90h420v-80l-296 -347h311v-90h-455v80l286 347h-266z" />
    <glyph glyph-name="braceleft" unicode="{" horiz-adv-x="296" 
d="M-4 225v90q31 0 57 14q37 19 37 59v206q0 64 48 104q39 33 80 33h91v-90h-55q-56 0 -56 -70v-195q0 -53 -40 -81q-28 -21 -64 -24v-2q104 -11 104 -111v-189q0 -70 56 -70h55v-90h-91q-41 0 -80 33q-48 41 -48 104v198q0 43 -37 65q-26 16 -57 16z" />
    <glyph glyph-name="bar" unicode="|" horiz-adv-x="222" 
d="M60 -214v1000h102v-1000h-102z" />
    <glyph glyph-name="braceright" unicode="}" horiz-adv-x="296" 
d="M300 315v-90q-31 0 -58 -15q-36 -20 -36 -58v-206q0 -63 -48 -104q-39 -33 -80 -33h-91v90h55q56 0 56 70v195q0 88 104 105v2q-104 11 -104 111v189q0 70 -56 70h-55v90h91q41 0 80 -33q48 -40 48 -104v-198q0 -42 36 -65q26 -16 58 -16z" />
    <glyph glyph-name="asciitilde" unicode="~" horiz-adv-x="600" 
d="M495 338l36 -84q-59 -86 -125 -86q-45 0 -102 33q-59 35 -115 35q-49 0 -84 -68l-36 84q42 86 125 86q36 0 111 -32q83 -36 102 -36q38 0 88 68z" />
    <glyph glyph-name="nbspace" unicode="&#xa0;" 
 />
    <glyph glyph-name="exclamdown" unicode="&#xa1;" 
d="M206 531v-125h-134v125h134zM202 21v-204h-125v204l33 311h59z" />
    <glyph glyph-name="cent" unicode="&#xa2;" horiz-adv-x="556" 
d="M311 441v-364q91 16 103 118h114q-38 -207 -217 -207v-90h-42v90h-1v89h1v364h-1v90h1v90h42v-90q84 0 145 -50q62 -53 68 -136h-114q-4 43 -32 69q-27 27 -67 27zM83 90q-45 70 -45 165q0 104 47 178q47 71 124 92v-107q-57 -50 -57 -163q0 -101 57 -150v-109
q-80 21 -126 94z" />
    <glyph glyph-name="sterling" unicode="&#xa3;" horiz-adv-x="556" 
d="M31 319v65h63q-47 56 -47 141q0 90 73 150q70 56 161 56q116 0 183 -62q67 -64 68 -185h-114q-9 152 -135 152q-48 0 -78 -30q-33 -32 -33 -87q0 -50 46 -135h147v-65h-123q16 -28 16 -67q0 -89 -101 -164l2 -2q71 27 92 27q30 0 81 -17q46 -18 74 -18q53 0 97 38l51 -77
q-67 -56 -160 -56q6 0 -99 15q-62 20 -105 20q-61 0 -101 -34l-53 81q108 73 108 162q0 49 -21 92h-92z" />
    <glyph glyph-name="currency" unicode="&#xa4;" horiz-adv-x="556" 
d="M475 612l61 -61l-56 -58q47 -50 47 -143q0 -89 -48 -146l55 -59l-55 -55l-57 58q-41 -39 -110 -48v104q47 12 77 53t30 93q0 61 -40 104q-41 44 -99 44q-62 0 -104 -44q-41 -44 -41 -106q0 -54 33 -95t84 -50v-104q-76 7 -120 48l-56 -58l-56 56l57 61q-50 56 -50 142
q0 97 50 144l-57 61l57 57l57 -56q53 46 146 46q84 0 137 -45z" />
    <glyph glyph-name="yen" unicode="&#xa5;" horiz-adv-x="556" 
d="M221 0v165h-137v65h137v68h-137v65h98l-187 351h127l156 -320l159 320h124l-188 -351h99v-65h-137v-68h137v-65h-137v-165h-114z" />
    <glyph glyph-name="brokenbar" unicode="&#xa6;" horiz-adv-x="222" 
d="M60 411v250h102v-250h-102zM60 -89v250h102v-250h-102z" />
    <glyph glyph-name="section" unicode="&#xa7;" horiz-adv-x="556" 
d="M226 622q-25 -22 -25 -55q0 -41 52 -77q19 -13 115 -62q80 -42 114 -74q52 -49 52 -114q0 -63 -50 -111l-70 55q13 19 13 45q0 45 -70 82l-166 95q-61 -18 -61 -80q0 -46 55 -77l171 -97l73 -56q55 -48 55 -128t-61 -128q-55 -43 -137 -43q-94 0 -153 53q-62 56 -63 152
h108q7 -115 105 -115q87 0 87 81q0 48 -54 87q-15 12 -118 67q-176 86 -176 191q0 104 108 149q-43 46 -43 101q0 75 62 125q59 44 135 44q88 0 143 -51q58 -52 58 -138h-108q-3 44 -27 71q-25 28 -67 28q-31 0 -57 -20z" />
    <glyph glyph-name="dieresis" unicode="&#xa8;" horiz-adv-x="241" 
d="M91 602h-114v108h114v-108zM149 710h114v-108h-114v108z" />
    <glyph glyph-name="copyright" unicode="&#xa9;" horiz-adv-x="800" 
d="M590 285h-69q-6 -39 -35 -64q-28 -25 -73 -25q-59 0 -97 48q-35 47 -35 113q0 65 33 106q36 44 97 44q90 0 110 -86h68q-11 73 -60 113q-47 38 -118 38q-96 0 -155 -62q-55 -59 -55 -153q0 -99 58 -161q59 -65 154 -65q65 0 115 41q50 42 62 113zM142 629
q106 103 259 103q151 0 257 -103q110 -108 110 -272q0 -158 -104 -265q-99 -102 -244 -109v65q116 8 190 92q78 87 78 217q0 134 -84 223q-81 87 -203 87q-123 0 -206 -87q-83 -88 -83 -223q0 -119 66 -205q67 -87 181 -102v-66q-144 15 -236 119q-91 103 -91 254
q0 165 110 272z" />
    <glyph glyph-name="ordfeminine" unicode="&#xaa;" horiz-adv-x="380" 
d="M331 621v-151q0 -11 4.5 -17t12.5 -5h7q7 0 9 1v-68q-24 -8 -47 -8q-53 0 -62 49q-31 -49 -117 -49q-50 0 -85 24q-37 25 -37 69q0 51 44 74q26 15 91 26q53 8 66 12q27 9 27 26q0 45 -60 45q-66 0 -70 -42h-85q11 107 160 107q59 0 97 -22q45 -25 45 -71zM244 491v44
q-2 -2 -85 -18q-56 -12 -56 -46q0 -33 56 -33q85 0 85 53z" />
    <glyph glyph-name="guillemotleft" unicode="&#xab;" horiz-adv-x="463" 
d="M403 93l-155 123v112l155 123v-103l-95 -76l95 -76v-103zM205 93l-155 123v112l155 123v-103l-95 -76l95 -76v-103z" />
    <glyph glyph-name="logicalnot" unicode="&#xac;" horiz-adv-x="600" 
d="M450 108v195h-402v102h504v-297h-102z" />
    <glyph glyph-name="uni00AD" unicode="&#xad;" horiz-adv-x="389" 
d="M49 218v108h291v-108h-291z" />
    <glyph glyph-name="registered" unicode="&#xae;" horiz-adv-x="800" 
d="M142 629q106 103 259 103q151 0 257 -103q110 -108 110 -272q0 -158 -104 -265q-99 -102 -244 -109v65q116 8 190 92q78 87 78 217q0 134 -84 223q-81 87 -203 87q-123 0 -206 -87q-83 -88 -83 -223q0 -119 66 -205q67 -87 181 -102v-66q-144 15 -236 119
q-91 103 -91 254q0 165 110 272zM391 377h12q48 0 67 10q29 15 29 55q0 34 -30 47q-19 9 -60 9h-81v-93h-1v-136h1v-126h-68v413h156q76 0 113 -28q38 -29 38 -91q0 -100 -108 -112l116 -182h-77l-107 177v57z" />
    <glyph glyph-name="macron" unicode="&#xaf;" horiz-adv-x="241" 
d="M265 624h-288v65h288v-65z" />
    <glyph glyph-name="degree" unicode="&#xb0;" horiz-adv-x="400" 
d="M134 498q27 -28 66 -28t67 28q27 27 27 66q0 38 -27 67q-29 27 -67 27q-39 0 -66 -27q-28 -28 -28 -67t28 -66zM94 670q44 44 106 44t106 -44t44 -106t-44 -106t-106 -44t-106 44t-44 106t44 106z" />
    <glyph glyph-name="plusminus" unicode="&#xb1;" horiz-adv-x="600" 
d="M48 0v102h504v-102h-504zM249 381v125h102v-125h201v-102h-201v-125h-102v125h-201v102h201z" />
    <glyph glyph-name="twosuperior" unicode="&#xb2;" horiz-adv-x="360" 
d="M336 343v-70h-315q2 108 100 171q4 3 46 30q31 20 44 30q47 36 48 78q0 62 -73 62q-67 0 -73 -93h-87q0 75 44 119t120 44q68 0 110 -30q46 -34 46 -100q0 -76 -102 -141q-113 -74 -121 -100h213z" />
    <glyph glyph-name="threesuperior" unicode="&#xb3;" horiz-adv-x="360" 
d="M146 475v58q42 -1 69 12q32 17 32 49q0 24 -23 38q-20 12 -46 12q-33 0 -54 -21q-21 -22 -19 -55h-80q3 68 44 108q41 38 110 38q62 0 102 -26q46 -31 46 -90q0 -68 -64 -90v-2q82 -13 82 -105q0 -63 -48 -101q-47 -36 -117 -36q-159 0 -164 155h80q-2 -37 20 -60
q22 -25 64 -25q37 0 60 19q25 19 25 52q0 76 -119 70z" />
    <glyph glyph-name="acute" unicode="&#xb4;" horiz-adv-x="241" 
d="M45 589l90 143h135l-142 -143h-83z" />
    <glyph glyph-name="mu" unicode="&#xb5;" horiz-adv-x="574" 
d="M514 517v-517h-112v72h-2q-21 -38 -62 -62q-38 -24 -74 -24q-58 0 -90 36v-213h-114v708h114v-317q0 -124 99 -124q127 0 127 141v300h114z" />
    <glyph glyph-name="paragraph" unicode="&#xb6;" horiz-adv-x="600" 
d="M246 -160v504q-97 0 -156 52q-59 50 -59 130q0 188 233 188h259v-874h-80v809h-117v-809h-80z" />
    <glyph glyph-name="periodcentered" unicode="&#xb7;" 
d="M87 354q22 22 52 22q31 0 53 -22t22 -52q0 -31 -22 -53q-23 -23 -53 -23t-53 23q-22 22 -22 53q0 29 23 52z" />
    <glyph glyph-name="cedilla" unicode="&#xb8;" horiz-adv-x="241" 
d="M9 -200l18 40q33 -16 65 -16q61 0 61 41q0 38 -46 38q-23 0 -39 -10l-22 19l66 88h48l-46 -59l1 -1q9 4 33 4q33 0 57 -18q28 -21 28 -57q0 -45 -39 -71q-33 -21 -82 -21q-60 0 -103 23z" />
    <glyph glyph-name="onesuperior" unicode="&#xb9;" horiz-adv-x="360" 
d="M36 577v58q120 0 138 70h70v-432h-87v304h-121z" />
    <glyph glyph-name="ordmasculine" unicode="&#xba;" horiz-adv-x="380" 
d="M326 419q-46 -46 -133 -46t-133 46q-45 45 -45 124t45 124q47 47 133 47t133 -47q45 -45 45 -124t-45 -124zM261 615q-25 34 -68 34q-44 0 -69 -34q-22 -29 -22 -72t22 -71q25 -34 69 -34q85 0 91 105q0 41 -23 72z" />
    <glyph glyph-name="guillemotright" unicode="&#xbb;" horiz-adv-x="463" 
d="M258 451l155 -123v-112l-155 -123v103l95 76l-95 76v103zM60 451l155 -123v-112l-155 -123v103l95 76l-95 76v103z" />
    <glyph glyph-name="onequarter" unicode="&#xbc;" horiz-adv-x="834" 
d="M141 -24l419 748h78l-418 -748h-79zM37 577v58q120 0 138 70h70v-432h-87v304h-121zM632 172v158h-2l-117 -158h119zM719 97v-97h-87v97h-195v81l185 250h97v-256h47v-75h-47z" />
    <glyph glyph-name="onehalf" unicode="&#xbd;" horiz-adv-x="834" 
d="M788 70v-70h-315q0 111 119 183q73 46 82 53q37 31 37 73q0 31 -21 50q-20 17 -52 17q-67 0 -73 -98h-87q0 80 43 123q43 45 121 45q68 0 110 -33q46 -36 46 -102q0 -73 -102 -141q-111 -67 -121 -100h213zM36 577v58q120 0 138 70h70v-432h-87v304h-121zM137 -24
l419 748h78l-418 -748h-79z" />
    <glyph glyph-name="threequarters" unicode="&#xbe;" horiz-adv-x="834" 
d="M146 474v58q40 -2 69 12q32 17 32 50q0 24 -23 38q-20 12 -46 12q-33 0 -54 -21q-21 -22 -19 -55h-80q3 68 44 108q41 38 110 38q62 0 102 -26q46 -31 46 -90q0 -68 -64 -90v-2q82 -13 82 -105q0 -63 -48 -101q-47 -36 -117 -36q-159 0 -164 155h80q-2 -37 20 -60
q22 -25 64 -25q37 0 60 19q25 19 25 52q0 75 -119 69zM196 -24l419 748h78l-418 -748h-79zM669 172v158h-2l-117 -158h119zM756 97v-97h-87v97h-195v81l183 250h99v-256h47v-75h-47z" />
    <glyph glyph-name="questiondown" unicode="&#xbf;" horiz-adv-x="556" 
d="M210 531h134v-125h-134v125zM393 39h114q0 -108 -64 -172q-66 -67 -176 -67q-94 0 -155 52q-63 54 -63 145q0 94 88 166q49 41 63 65q25 38 25 104h108q0 -137 -78 -203q-49 -43 -57 -53q-24 -32 -24 -75q0 -51 35 -81q28 -25 63 -25q121 0 121 144z" />
    <glyph glyph-name="Agrave" unicode="&#xc0;" horiz-adv-x="667" 
d="M268 714h133l275 -714h-134l-67 189h-285l-67 -189h-129l110 284h338l-107 307h-3l-86 -245h-119zM175 905h134l91 -143h-83z" />
    <glyph glyph-name="Aacute" unicode="&#xc1;" horiz-adv-x="667" 
d="M268 714h133l275 -714h-134l-67 189h-285l-67 -189h-129l110 284h338l-107 307h-3l-86 -245h-119zM268 763l90 143h135l-142 -143h-83z" />
    <glyph glyph-name="Acircumflex" unicode="&#xc2;" horiz-adv-x="667" 
d="M268 714h133l275 -714h-134l-67 189h-285l-67 -189h-129l110 284h338l-107 307h-3l-86 -245h-119zM333 841l-66 -79h-96l114 143h97l115 -143h-97z" />
    <glyph glyph-name="Atilde" unicode="&#xc3;" horiz-adv-x="667" 
d="M268 714h133l275 -714h-134l-67 189h-285l-67 -189h-129l110 284h338l-107 307h-3l-86 -245h-119zM456 881h56q-9 -55 -33 -81q-28 -34 -78 -34q-32 0 -74 19q-44 18 -68 18q-35 0 -43 -41h-57q8 46 32 76q30 37 72 37q32 0 81 -20q42 -18 62 -18q39 0 50 44z" />
    <glyph glyph-name="Adieresis" unicode="&#xc4;" 
 />
    <glyph glyph-name="Aring" unicode="&#xc5;" 
 />
    <glyph glyph-name="AE" unicode="&#xc6;" horiz-adv-x="963" 
d="M348 714h576v-108h-348v-187h326v-102h-326v-209h354v-108h-473v606h-36l-157 -328h133v-95h-179l-86 -183h-139z" />
    <glyph glyph-name="Ccedilla" unicode="&#xc7;" 
 />
    <glyph glyph-name="Egrave" unicode="&#xc8;" horiz-adv-x="630" 
d="M76 0v714h514v-108h-389v-187h360v-102h-360v-209h396v-108h-521zM182 905h134l91 -143h-83z" />
    <glyph glyph-name="Eacute" unicode="&#xc9;" horiz-adv-x="630" 
d="M76 0v714h514v-108h-389v-187h360v-102h-360v-209h396v-108h-521zM264 763l90 143h135l-142 -143h-83z" />
    <glyph glyph-name="Ecircumflex" unicode="&#xca;" horiz-adv-x="630" 
d="M76 0v714h514v-108h-389v-187h360v-102h-360v-209h396v-108h-521zM333 841l-66 -79h-96l114 143h97l115 -143h-97z" />
    <glyph glyph-name="Edieresis" unicode="&#xcb;" 
 />
    <glyph glyph-name="Igrave" unicode="&#xcc;" 
d="M76 0v714h125v-714h-125zM-26 905h134l91 -143h-83z" />
    <glyph glyph-name="Iacute" unicode="&#xcd;" 
d="M76 0v714h125v-714h-125zM76 763l90 143h135l-142 -143h-83z" />
    <glyph glyph-name="Icircumflex" unicode="&#xce;" 
 />
    <glyph glyph-name="Idieresis" unicode="&#xcf;" 
 />
    <glyph glyph-name="Eth" unicode="&#xd0;" horiz-adv-x="722" 
d="M201 612v-193h195v-102h-195v-215h123q136 0 193 74q45 58 45 181q0 122 -45 182q-57 73 -193 73h-123zM76 0v317h-67v102h67v295h296q158 0 240 -105q75 -95 75 -252t-75 -252q-82 -105 -240 -105h-296z" />
    <glyph glyph-name="Ntilde" unicode="&#xd1;" 
 />
    <glyph glyph-name="Ograve" unicode="&#xd2;" horiz-adv-x="760" 
d="M633 621q91 -106 91 -264q0 -161 -94 -267l-86 75q55 74 55 192q0 115 -51 188q-58 85 -166 85q-109 0 -167 -85q-51 -73 -51 -188q0 -113 51 -187q58 -85 167 -85q70 0 120 37l84 -73q-87 -66 -204 -66q-156 0 -252 110q-91 104 -91 264q0 158 91 264q96 111 252 111
q155 0 251 -111zM240 915h134l91 -143h-83z" />
    <glyph glyph-name="Oacute" unicode="&#xd3;" horiz-adv-x="760" 
d="M633 621q91 -106 91 -264q0 -161 -94 -267l-86 75q55 74 55 192q0 115 -51 188q-58 85 -166 85q-109 0 -167 -85q-51 -73 -51 -188q0 -113 51 -187q58 -85 167 -85q70 0 120 37l84 -73q-87 -66 -204 -66q-156 0 -252 110q-91 104 -91 264q0 158 91 264q96 111 252 111
q155 0 251 -111zM297 773l90 143h135l-142 -143h-83z" />
    <glyph glyph-name="Ocircumflex" unicode="&#xd4;" horiz-adv-x="760" 
d="M633 621q91 -106 91 -264q0 -161 -94 -267l-86 75q55 74 55 192q0 115 -51 188q-58 85 -166 85q-109 0 -167 -85q-51 -73 -51 -188q0 -113 51 -187q58 -85 167 -85q70 0 120 37l84 -73q-87 -66 -204 -66q-156 0 -252 110q-91 104 -91 264q0 158 91 264q96 111 252 111
q155 0 251 -111zM381 851l-66 -79h-96l114 143h97l115 -143h-97z" />
    <glyph glyph-name="Otilde" unicode="&#xd5;" horiz-adv-x="760" 
d="M633 621q91 -106 91 -264q0 -161 -94 -267l-86 75q55 74 55 192q0 115 -51 188q-58 85 -166 85q-109 0 -167 -85q-51 -73 -51 -188q0 -113 51 -187q58 -85 167 -85q70 0 120 37l84 -73q-87 -66 -204 -66q-156 0 -252 110q-91 104 -91 264q0 158 91 264q96 111 252 111
q155 0 251 -111zM503 891h56q-9 -55 -33 -81q-28 -34 -78 -34q-32 0 -74 19q-44 18 -68 18q-35 0 -43 -41h-57q8 46 32 76q30 37 72 37q32 0 81 -20q42 -18 62 -18q39 0 50 44z" />
    <glyph glyph-name="Odieresis" unicode="&#xd6;" 
 />
    <glyph glyph-name="multiply" unicode="&#xd7;" horiz-adv-x="600" 
d="M229 253l-174 174l86 56l158 -159l160 159l86 -56l-175 -174l175 -174l-86 -56l-160 160l-158 -160l-86 56z" />
    <glyph glyph-name="Oslash" unicode="&#xd8;" horiz-adv-x="760" 
d="M720 696l-79 -89q81 -106 81 -253q0 -160 -91 -264q-96 -110 -252 -110q-96 0 -171 45l71 82q43 -25 100 -25q109 0 167 85q51 74 51 187q0 98 -37 162l-329 -371l-74 -83l-76 -85l-42 36l79 90q-81 105 -81 251q0 158 91 264q96 111 251 111q96 0 172 -44l-72 -82
q-42 24 -100 24q-108 0 -166 -85q-51 -74 -51 -188q0 -94 36 -161l330 371l74 84l75 84z" />
    <glyph glyph-name="Ugrave" unicode="&#xd9;" horiz-adv-x="722" 
d="M68 257v457h125v-416q0 -96 23 -139q38 -68 145 -68t145 68q23 43 23 139v416h125v-457q0 -134 -80 -206q-77 -68 -213 -68q-135 0 -212 68q-81 72 -81 206zM204 905h134l91 -143h-83z" />
    <glyph glyph-name="Uacute" unicode="&#xda;" horiz-adv-x="722" 
d="M68 257v457h125v-416q0 -96 23 -139q38 -68 145 -68t145 68q23 43 23 139v416h125v-457q0 -134 -80 -206q-77 -68 -213 -68q-135 0 -212 68q-81 72 -81 206zM292 763l90 143h135l-142 -143h-83z" />
    <glyph glyph-name="Ucircumflex" unicode="&#xdb;" 
 />
    <glyph glyph-name="Udieresis" unicode="&#xdc;" 
 />
    <glyph glyph-name="Yacute" unicode="&#xdd;" horiz-adv-x="648" 
d="M-7 713h146l155 -263l-66 -117zM511 711h139l-265 -431v-278h-124v274l108 190zM259 763l90 143h135l-142 -143h-83z" />
    <glyph glyph-name="Thorn" unicode="&#xde;" horiz-adv-x="667" 
d="M201 504v-236h183q50 0 84 25q41 32 41 93q0 118 -123 118h-185zM76 0v714h125v-108h190q136 0 198 -77q45 -55 45 -144q0 -87 -45 -143q-61 -76 -198 -76h-190v-166h-125z" />
    <glyph glyph-name="germandbls" unicode="&#xdf;" horiz-adv-x="574" 
d="M63 0v523q0 96 62 153q59 55 157 55q85 0 147 -47q66 -51 66 -133q0 -119 -102 -151v-2q61 -7 99 -59q35 -49 35 -112q0 -105 -62 -173q-63 -68 -167 -68q-28 0 -56 3v90q10 -3 39 -3q132 0 132 156q0 67 -55 98q-38 25 -115 25v75q70 0 99 26q39 32 39 84
q0 101 -101 101q-103 0 -103 -130v-511h-114z" />
    <glyph glyph-name="agrave" unicode="&#xe0;" horiz-adv-x="556" 
d="M388 48q-64 -63 -179 -63q-74 0 -124 38q-54 41 -54 114q0 86 64 125q42 26 136 36q18 4 59 9q40 5 50 8q46 13 46 56q0 71 -107 71t-115 -83h-114q6 94 78 137q58 36 158 36q87 0 142 -34q66 -40 66 -117v-16q-4 -31 -44 -66q-34 -28 -71 -42q-38 -18 -140 -29
q-94 -15 -94 -86q0 -35 38 -53q30 -14 68 -14q46 0 83 22q45 29 45 77v17q73 29 115 65v-142q0 -20 5 -30q6 -9 22 -9h12l16 2v-79q-36 -13 -72 -13q-77 0 -89 63zM152 724h134l91 -143h-83z" />
    <glyph glyph-name="aacute" unicode="&#xe1;" horiz-adv-x="556" 
d="M388 48q-64 -63 -179 -63q-74 0 -124 38q-54 41 -54 114q0 86 64 125q42 26 136 36q18 4 59 9q40 5 50 8q46 13 46 56q0 71 -107 71t-115 -83h-114q6 94 78 137q58 36 158 36q87 0 142 -34q66 -40 66 -117v-16q-4 -31 -44 -66q-34 -28 -71 -42q-38 -18 -140 -29
q-94 -15 -94 -86q0 -35 38 -53q30 -14 68 -14q46 0 83 22q45 29 45 77v17q73 29 115 65v-142q0 -20 5 -30q6 -9 22 -9h12l16 2v-79q-36 -13 -72 -13q-77 0 -89 63zM222 582l90 143h135l-142 -143h-83z" />
    <glyph glyph-name="acircumflex" unicode="&#xe2;" horiz-adv-x="556" 
d="M388 48q-64 -63 -179 -63q-74 0 -124 38q-54 41 -54 114q0 86 64 125q42 26 136 36q18 4 59 9q40 5 50 8q46 13 46 56q0 71 -107 71t-115 -83h-114q6 94 78 137q58 36 158 36q87 0 142 -34q66 -40 66 -117v-16q-4 -31 -44 -66q-34 -28 -71 -42q-38 -18 -140 -29
q-94 -15 -94 -86q0 -35 38 -53q30 -14 68 -14q46 0 83 22q45 29 45 77v17q73 29 115 65v-142q0 -20 5 -30q6 -9 22 -9h12l16 2v-79q-36 -13 -72 -13q-77 0 -89 63zM284 661l-66 -79h-96l114 143h97l115 -143h-97z" />
    <glyph glyph-name="atilde" unicode="&#xe3;" horiz-adv-x="556" 
d="M388 48q-64 -63 -179 -63q-74 0 -124 38q-54 41 -54 114q0 86 64 125q42 26 136 36q18 4 59 9q40 5 50 8q46 13 46 56q0 71 -107 71t-115 -83h-114q6 94 78 137q58 36 158 36q87 0 142 -34q66 -40 66 -117v-16q-4 -31 -44 -66q-34 -28 -71 -42q-38 -18 -140 -29
q-94 -15 -94 -86q0 -35 38 -53q30 -14 68 -14q46 0 83 22q45 29 45 77v17q73 29 115 65v-142q0 -20 5 -30q6 -9 22 -9h12l16 2v-79q-36 -13 -72 -13q-77 0 -89 63zM407 701h56q-9 -55 -33 -81q-28 -34 -78 -34q-32 0 -74 19q-43 18 -68 18q-35 0 -43 -41h-57q8 46 32 76
q30 37 72 37q32 0 81 -20q42 -18 62 -18q39 0 50 44z" />
    <glyph glyph-name="adieresis" unicode="&#xe4;" 
 />
    <glyph glyph-name="aring" unicode="&#xe5;" 
 />
    <glyph glyph-name="ae" unicode="&#xe6;" horiz-adv-x="889" 
d="M457 462q52 70 164 70q128 0 191 -87q59 -80 50 -216h-316v75h202q0 63 -34 100q-35 38 -98 38q-58 0 -94 -41q-31 -37 -36 -97v-75q0 -64 32 -107q36 -47 103 -47q92 0 123 88h114q-23 -84 -85 -131q-64 -47 -150 -47q-137 0 -191 95q-63 -95 -215 -95q-83 0 -133 38
q-55 40 -55 114q0 86 64 125q42 26 136 36q6 2 47 8q30 4 42 6v-75q-21 -3 -40 -4q-9 -1 -22.5 -3t-17.5 -2q-44 -7 -67 -24q-28 -21 -28 -62q0 -36 35 -53q28 -14 70 -14q50 0 88 27q41 29 41 78l1 51v149q-6 62 -101 62q-107 0 -115 -83h-114q6 94 78 137q58 36 155 36
q127 0 176 -70z" />
    <glyph glyph-name="ccedilla" unicode="&#xe7;" 
 />
    <glyph glyph-name="egrave" unicode="&#xe8;" horiz-adv-x="556" 
d="M414 164h108q-17 -84 -84 -130q-62 -46 -149 -46q-121 0 -188 76q-65 74 -65 196q0 20 3 46h111v-1h265q-5 58 -37 96q-38 41 -92 41q-86 0 -122 -76h-110q27 75 86 119q62 47 146 47q118 0 189 -93q69 -89 54 -208h-379q0 -67 34 -107q37 -46 105 -46q95 0 125 86z
M144 724h134l91 -143h-83z" />
    <glyph glyph-name="eacute" unicode="&#xe9;" horiz-adv-x="556" 
d="M414 164h108q-17 -84 -84 -130q-62 -46 -149 -46q-121 0 -188 76q-65 74 -65 196q0 20 3 46h111v-1h265q-5 58 -37 96q-38 41 -92 41q-86 0 -122 -76h-110q27 75 86 119q62 47 146 47q118 0 189 -93q69 -89 54 -208h-379q0 -67 34 -107q37 -46 105 -46q95 0 125 86z
M202 582l90 143h135l-142 -143h-83z" />
    <glyph glyph-name="ecircumflex" unicode="&#xea;" horiz-adv-x="556" 
d="M414 164h108q-17 -84 -84 -130q-62 -46 -149 -46q-121 0 -188 76q-65 74 -65 196q0 20 3 46h111v-1h265q-5 58 -37 96q-38 41 -92 41q-86 0 -122 -76h-110q27 75 86 119q62 47 146 47q118 0 189 -93q69 -89 54 -208h-379q0 -67 34 -107q37 -46 105 -46q95 0 125 86z
M284 661l-66 -79h-96l114 143h97l115 -143h-97z" />
    <glyph glyph-name="edieresis" unicode="&#xeb;" 
 />
    <glyph glyph-name="igrave" unicode="&#xec;" horiz-adv-x="241" 
d="M63 0v517h114v-517h-114zM-49 724h134l91 -143h-83z" />
    <glyph glyph-name="iacute" unicode="&#xed;" horiz-adv-x="241" 
d="M63 0v517h114v-517h-114zM62 582l90 143h135l-142 -143h-83z" />
    <glyph glyph-name="icircumflex" unicode="&#xee;" 
 />
    <glyph glyph-name="idieresis" unicode="&#xef;" 
 />
    <glyph glyph-name="eth" unicode="&#xf0;" horiz-adv-x="593" 
d="M194 541l-50 49l96 46q-68 28 -85 34l76 61q49 -15 104 -50l105 50l49 -49l-94 -45q155 -129 155 -328q0 -145 -61 -228q-71 -95 -208 -95q-111 0 -176 75q-63 72 -63 191q0 102 60 176q63 78 163 78q81 0 143 -44h2q-28 63 -108 131zM156 245q0 -72 32 -119
q35 -50 100 -50t109 53q39 49 39 116q0 71 -32 118q-38 53 -105 53q-143 0 -143 -171z" />
    <glyph glyph-name="ntilde" unicode="&#xf1;" 
 />
    <glyph glyph-name="ograve" unicode="&#xf2;" horiz-adv-x="593" 
d="M499 74l-79 79q24 47 24 106q0 74 -35 124q-40 58 -112 58t-112 -58q-35 -50 -35 -124q0 -75 35 -125q40 -58 112 -58q49 0 86 29l72 -72q-65 -47 -158 -47q-121 0 -192 77q-69 73 -69 196q0 120 69 195q71 77 192 77t192 -77q69 -75 69 -195q0 -111 -59 -185zM153 724
h134l91 -143h-83z" />
    <glyph glyph-name="oacute" unicode="&#xf3;" horiz-adv-x="593" 
d="M499 74l-79 79q24 47 24 106q0 74 -35 124q-40 58 -112 58t-112 -58q-35 -50 -35 -124q0 -75 35 -125q40 -58 112 -58q49 0 86 29l72 -72q-65 -47 -158 -47q-121 0 -192 77q-69 73 -69 196q0 120 69 195q71 77 192 77t192 -77q69 -75 69 -195q0 -111 -59 -185zM213 582
l90 143h135l-142 -143h-83z" />
    <glyph glyph-name="ocircumflex" unicode="&#xf4;" horiz-adv-x="593" 
d="M499 74l-79 79q24 47 24 106q0 74 -35 124q-40 58 -112 58t-112 -58q-35 -50 -35 -124q0 -75 35 -125q40 -58 112 -58q49 0 86 29l72 -72q-65 -47 -158 -47q-121 0 -192 77q-69 73 -69 196q0 120 69 195q71 77 192 77t192 -77q69 -75 69 -195q0 -111 -59 -185zM298 661
l-66 -79h-96l114 143h97l115 -143h-97z" />
    <glyph glyph-name="otilde" unicode="&#xf5;" horiz-adv-x="593" 
d="M499 74l-79 79q24 47 24 106q0 74 -35 124q-40 58 -112 58t-112 -58q-35 -50 -35 -124q0 -75 35 -125q40 -58 112 -58q49 0 86 29l72 -72q-65 -47 -158 -47q-121 0 -192 77q-69 73 -69 196q0 120 69 195q71 77 192 77t192 -77q69 -75 69 -195q0 -111 -59 -185zM418 701
h56q-9 -55 -33 -81q-28 -34 -78 -34q-32 0 -74 19q-43 18 -68 18q-35 0 -43 -41h-57q8 46 32 76q30 37 72 37q32 0 81 -20q42 -18 62 -18q39 0 50 44z" />
    <glyph glyph-name="odieresis" unicode="&#xf6;" 
 />
    <glyph glyph-name="divide" unicode="&#xf7;" horiz-adv-x="600" 
d="M250 -4q-22 22 -22 51q0 30 21 51q23 21 51 21t51 -21q21 -22 21 -51q0 -27 -22 -49q-21 -23 -49 -23q-29 0 -51 21zM250 408q-22 22 -22 51q0 30 21 51q23 21 51 21t51 -21q21 -22 21 -51q0 -27 -22 -49q-21 -23 -49 -23q-29 0 -51 21zM552 202h-504v102h504v-102z" />
    <glyph glyph-name="oslash" unicode="&#xf8;" horiz-adv-x="593" 
d="M173 155l223 244q-38 42 -99 42q-72 0 -112 -58q-35 -50 -35 -124q0 -58 23 -104zM64 -28l-32 28l65 72q-61 73 -61 187q0 120 69 195q71 77 192 77q103 0 170 -55l63 69l32 -28l-65 -71q61 -73 61 -187q0 -123 -69 -196q-71 -77 -192 -77q-101 0 -169 56zM421 362
l-223 -244q38 -42 99 -42q72 0 112 58q35 50 35 125q0 57 -23 103z" />
    <glyph glyph-name="ugrave" unicode="&#xf9;" horiz-adv-x="574" 
d="M514 517v-517h-112v72h-2q-47 -86 -147 -86q-193 0 -193 203v328h114v-317q0 -124 99 -124q127 0 127 141v300h114zM141 724h134l91 -143h-83z" />
    <glyph glyph-name="uacute" unicode="&#xfa;" horiz-adv-x="574" 
d="M514 517v-517h-112v72h-2q-47 -86 -147 -86q-193 0 -193 203v328h114v-317q0 -124 99 -124q127 0 127 141v300h114zM212 582l90 143h135l-142 -143h-83z" />
    <glyph glyph-name="ucircumflex" unicode="&#xfb;" 
 />
    <glyph glyph-name="udieresis" unicode="&#xfc;" 
 />
    <glyph glyph-name="yacute" unicode="&#xfd;" horiz-adv-x="519" 
d="M199 2l-196 515h125l135 -386h2l131 386h119l-201 -545q-38 -94 -60 -123q-44 -54 -123 -54q-40 0 -79 6v96q41 -7 54 -7q59 0 80 72zM195 582l90 143h135l-142 -143h-83z" />
    <glyph glyph-name="thorn" unicode="&#xfe;" horiz-adv-x="611" 
d="M425 384q-41 57 -107 57q-70 0 -108 -50q-37 -47 -37 -133q0 -80 38 -130q40 -52 107 -52q72 0 111 57q32 50 32 125t-36 126zM63 -191v905h114v-264h2q53 81 154 81q117 0 182 -80q60 -75 60 -195q0 -114 -54 -187q-62 -83 -169 -83q-125 0 -173 81h-2v-258h-114z" />
    <glyph glyph-name="ydieresis" unicode="&#xff;" 
 />
    <glyph glyph-name="Amacron" unicode="&#x100;" 
 />
    <glyph glyph-name="amacron" unicode="&#x101;" 
 />
    <glyph glyph-name="Abreve" unicode="&#x102;" horiz-adv-x="667" 
d="M268 714h133l275 -714h-134l-67 189h-285l-67 -189h-129l110 284h338l-107 307h-3l-86 -245h-119zM196 894h52q26 -62 96 -59q64 -1 90 59h51q-13 -132 -149 -132q-130 0 -140 132z" />
    <glyph glyph-name="abreve" unicode="&#x103;" horiz-adv-x="556" 
d="M388 48q-64 -63 -179 -63q-74 0 -124 38q-54 41 -54 114q0 86 64 125q42 26 136 36q18 4 59 9q40 5 50 8q46 13 46 56q0 71 -107 71t-115 -83h-114q6 94 78 137q58 36 158 36q87 0 142 -34q66 -40 66 -117v-16q-4 -31 -44 -66q-34 -28 -71 -42q-38 -18 -140 -29
q-94 -15 -94 -86q0 -35 38 -53q30 -14 68 -14q46 0 83 22q45 29 45 77v17q73 29 115 65v-142q0 -20 5 -30q6 -9 22 -9h12l16 2v-79q-36 -13 -72 -13q-77 0 -89 63zM147 712h52q26 -62 96 -59q64 -1 90 59h51q-14 -132 -149 -132q-129 0 -140 132z" />
    <glyph glyph-name="Aogonek" unicode="&#x104;" 
 />
    <glyph glyph-name="aogonek" unicode="&#x105;" 
 />
    <glyph glyph-name="Cacute" unicode="&#x106;" 
 />
    <glyph glyph-name="cacute" unicode="&#x107;" 
 />
    <glyph glyph-name="Ccircumflex" unicode="&#x108;" 
 />
    <glyph glyph-name="ccircumflex" unicode="&#x109;" 
 />
    <glyph glyph-name="Cdotaccent" unicode="&#x10a;" 
 />
    <glyph glyph-name="cdotaccent" unicode="&#x10b;" 
 />
    <glyph glyph-name="Ccaron" unicode="&#x10c;" 
 />
    <glyph glyph-name="ccaron" unicode="&#x10d;" 
 />
    <glyph glyph-name="Dcaron" unicode="&#x10e;" 
 />
    <glyph glyph-name="dcaron" unicode="&#x10f;" 
 />
    <glyph glyph-name="Dcroat" unicode="&#x110;" horiz-adv-x="722" 
d="M20 297v108h56v308h296q156 0 239 -104q75 -95 75 -253t-75 -252q-83 -104 -239 -104h-114v102h66q137 0 192 73q45 60 45 181q0 122 -45 182q-55 73 -192 73h-123v-206h126v-108h-126v-297h-125v297h-56z" />
    <glyph glyph-name="dcroat" unicode="&#x111;" horiz-adv-x="611" 
d="M318 565v90h115v59h113v-59h63v-90h-63v-564h-109v251h-1l1 7q0 86 -39 134q-37 48 -104 48q-74 0 -113 -59q-32 -50 -32 -129q0 -74 34 -121q39 -55 109 -55q50 0 85 30v-96q-43 -24 -100 -24q-117 0 -182 80q-60 73 -60 195q0 134 70 205q61 64 154 64q123 0 172 -81h2
v115h-115z" />
    <glyph glyph-name="Emacron" unicode="&#x112;" 
 />
    <glyph glyph-name="emacron" unicode="&#x113;" 
 />
    <glyph glyph-name="Ebreve" unicode="&#x114;" 
 />
    <glyph glyph-name="ebreve" unicode="&#x115;" 
 />
    <glyph glyph-name="Edotaccent" unicode="&#x116;" 
 />
    <glyph glyph-name="edotaccent" unicode="&#x117;" 
 />
    <glyph glyph-name="Eogonek" unicode="&#x118;" 
 />
    <glyph glyph-name="eogonek" unicode="&#x119;" 
 />
    <glyph glyph-name="Ecaron" unicode="&#x11a;" 
 />
    <glyph glyph-name="ecaron" unicode="&#x11b;" 
 />
    <glyph glyph-name="Gcircumflex" unicode="&#x11c;" 
 />
    <glyph glyph-name="gcircumflex" unicode="&#x11d;" 
 />
    <glyph glyph-name="Gbreve" unicode="&#x11e;" 
 />
    <glyph glyph-name="gbreve" unicode="&#x11f;" 
 />
    <glyph glyph-name="Gdotaccent" unicode="&#x120;" 
 />
    <glyph glyph-name="gdotaccent" unicode="&#x121;" 
 />
    <glyph glyph-name="Gcommaaccent" unicode="&#x122;" 
 />
    <glyph glyph-name="gcommaaccent" unicode="&#x123;" 
 />
    <glyph glyph-name="Hcircumflex" unicode="&#x124;" 
 />
    <glyph glyph-name="hcircumflex" unicode="&#x125;" 
 />
    <glyph glyph-name="Hbar" unicode="&#x126;" 
 />
    <glyph glyph-name="hbar" unicode="&#x127;" 
 />
    <glyph glyph-name="Itilde" unicode="&#x128;" 
d="M76 0v714h125v-714h-125zM265 881h56q-9 -55 -33 -81q-28 -34 -78 -34q-32 0 -74 19q-44 18 -68 18q-35 0 -43 -41h-57q8 46 32 76q30 37 72 37q32 0 81 -20q42 -18 62 -18q39 0 50 44z" />
    <glyph glyph-name="itilde" unicode="&#x129;" horiz-adv-x="241" 
d="M63 0v517h114v-517h-114zM245 701h56q-9 -55 -33 -81q-28 -34 -78 -34q-32 0 -74 19q-44 18 -68 18q-35 0 -43 -41h-57q8 46 32 76q30 37 72 37q32 0 81 -20q42 -18 62 -18q39 0 50 44z" />
    <glyph glyph-name="uni012A" unicode="&#x12a;" 
 />
    <glyph glyph-name="imacron" unicode="&#x12b;" 
 />
    <glyph glyph-name="Iogonek" unicode="&#x12e;" 
 />
    <glyph glyph-name="iogonek" unicode="&#x12f;" 
 />
    <glyph glyph-name="Idotaccent" unicode="&#x130;" 
 />
    <glyph glyph-name="dotlessi" unicode="&#x131;" horiz-adv-x="241" 
d="M177 0h-114v517h114v-517z" />
    <glyph glyph-name="Jcircumflex" unicode="&#x134;" 
 />
    <glyph glyph-name="jcircumflex" unicode="&#x135;" 
 />
    <glyph glyph-name="Kcommaaccent" unicode="&#x136;" 
 />
    <glyph glyph-name="kcommaaccent" unicode="&#x137;" 
 />
    <glyph glyph-name="Lacute" unicode="&#x139;" 
 />
    <glyph glyph-name="lacute" unicode="&#x13a;" 
 />
    <glyph glyph-name="Lcommaaccent" unicode="&#x13b;" 
 />
    <glyph glyph-name="lcommaaccent" unicode="&#x13c;" 
 />
    <glyph glyph-name="Lcaron" unicode="&#x13d;" 
 />
    <glyph glyph-name="lcaron" unicode="&#x13e;" 
 />
    <glyph glyph-name="Ldot" unicode="&#x13f;" horiz-adv-x="574" 
d="M76 0v714h125v-606h363v-108h-488zM436 409h-114v108h114v-108z" />
    <glyph glyph-name="ldot" unicode="&#x140;" horiz-adv-x="363" 
d="M63 0v714h114v-714h-114zM345 409h-114v108h114v-108z" />
    <glyph glyph-name="Lslash" unicode="&#x141;" horiz-adv-x="574" 
d="M76 317v397h125v-306l200 142v-93l-200 -142v-207h363v-108h-488v227l-76 -54v90z" />
    <glyph glyph-name="lslash" unicode="&#x142;" horiz-adv-x="241" 
d="M63 0v319l-68 -53v71l68 53v324h114v-235l68 54v-72l-68 -54v-407h-114z" />
    <glyph glyph-name="Nacute" unicode="&#x143;" 
 />
    <glyph glyph-name="nacute" unicode="&#x144;" 
 />
    <glyph glyph-name="Ncommaaccent" unicode="&#x145;" 
 />
    <glyph glyph-name="ncommaaccent" unicode="&#x146;" 
 />
    <glyph glyph-name="Ncaron" unicode="&#x147;" 
 />
    <glyph glyph-name="ncaron" unicode="&#x148;" 
 />
    <glyph glyph-name="Omacron" unicode="&#x14c;" 
 />
    <glyph glyph-name="omacron" unicode="&#x14d;" 
 />
    <glyph glyph-name="Obreve" unicode="&#x14e;" 
 />
    <glyph glyph-name="obreve" unicode="&#x14f;" 
 />
    <glyph glyph-name="Ohungarumlaut" unicode="&#x150;" 
 />
    <glyph glyph-name="ohungarumlaut" unicode="&#x151;" 
 />
    <glyph glyph-name="OE" unicode="&#x152;" horiz-adv-x="1093" 
d="M671 317v-209h380v-108h-499v62v191v232q0 60 -43 100q-47 44 -128 44q-105 0 -164 -87q-51 -75 -51 -186q0 -112 51 -185q59 -86 164 -86q65 0 111 33v-105q-56 -30 -123 -30q-153 0 -244 112q-84 103 -84 259q0 158 88 264q95 113 248 113q115 0 180 -74v57h487v-108
h-373v-187h342v-102h-342zM671 320v-3q-1 1 0 3z" />
    <glyph glyph-name="oe" unicode="&#x153;" horiz-adv-x="907" 
d="M882 229h-473v75h359q-8 137 -134 137q-82 0 -116 -76h-126q-34 76 -112 76q-68 0 -102 -58q-30 -49 -30 -121q0 -79 27 -127q35 -59 105 -59q90 0 120 94h112q28 -94 127 -94q46 0 78 22q37 24 45 66h114q-21 -86 -83 -133q-61 -45 -152 -45q-138 0 -185 95
q-51 -95 -184 -95q-114 0 -179 81q-59 76 -59 193q0 114 65 191q68 80 182 80q131 0 181 -87q56 87 181 87q126 0 187 -91q52 -76 52 -211z" />
    <glyph glyph-name="Racute" unicode="&#x154;" 
 />
    <glyph glyph-name="racute" unicode="&#x155;" 
 />
    <glyph glyph-name="Rcommaaccent" unicode="&#x156;" 
 />
    <glyph glyph-name="rcommaaccent" unicode="&#x157;" 
 />
    <glyph glyph-name="Rcaron" unicode="&#x158;" 
 />
    <glyph glyph-name="rcaron" unicode="&#x159;" 
 />
    <glyph glyph-name="Sacute" unicode="&#x15a;" 
 />
    <glyph glyph-name="sacute" unicode="&#x15b;" 
 />
    <glyph glyph-name="Scircumflex" unicode="&#x15c;" 
 />
    <glyph glyph-name="scircumflex" unicode="&#x15d;" 
 />
    <glyph glyph-name="Scedilla" unicode="&#x15e;" 
 />
    <glyph glyph-name="Scedilla" unicode="&#xf6c1;" 
 />
    <glyph glyph-name="scedilla" unicode="&#x15f;" 
 />
    <glyph glyph-name="scedilla" unicode="&#xf6c2;" 
 />
    <glyph glyph-name="Scaron" unicode="&#x160;" 
 />
    <glyph glyph-name="scaron" unicode="&#x161;" 
 />
    <glyph glyph-name="Tcommaaccent" unicode="&#x162;" 
 />
    <glyph glyph-name="tcommaaccent" unicode="&#x163;" 
 />
    <glyph glyph-name="Tcaron" unicode="&#x164;" 
 />
    <glyph glyph-name="tcaron" unicode="&#x165;" 
 />
    <glyph glyph-name="Tbar" unicode="&#x166;" 
 />
    <glyph glyph-name="tbar" unicode="&#x167;" 
 />
    <glyph glyph-name="Utilde" unicode="&#x168;" horiz-adv-x="722" 
d="M68 257v457h125v-416q0 -96 23 -139q38 -68 145 -68t145 68q23 43 23 139v416h125v-457q0 -134 -80 -206q-77 -68 -213 -68q-135 0 -212 68q-81 72 -81 206zM484 881h56q-9 -55 -33 -81q-28 -34 -78 -34q-32 0 -74 19q-44 18 -68 18q-35 0 -43 -41h-57q8 46 32 76
q30 37 72 37q32 0 81 -20q42 -18 62 -18q39 0 50 44z" />
    <glyph glyph-name="utilde" unicode="&#x169;" horiz-adv-x="574" 
d="M514 517v-517h-112v72h-2q-47 -86 -147 -86q-193 0 -193 203v328h114v-317q0 -124 99 -124q127 0 127 141v300h114zM414 701h56q-9 -55 -33 -81q-28 -34 -78 -34q-32 0 -74 19q-44 18 -68 18q-35 0 -43 -41h-57q8 46 32 76q30 37 72 37q32 0 81 -20q42 -18 62 -18
q39 0 50 44z" />
    <glyph glyph-name="Umacron" unicode="&#x16a;" 
 />
    <glyph glyph-name="umacron" unicode="&#x16b;" 
 />
    <glyph glyph-name="Ubreve" unicode="&#x16c;" 
 />
    <glyph glyph-name="ubreve" unicode="&#x16d;" 
 />
    <glyph glyph-name="Uring" unicode="&#x16e;" 
 />
    <glyph glyph-name="uring" unicode="&#x16f;" 
 />
    <glyph glyph-name="Uhungarumlaut" unicode="&#x170;" 
 />
    <glyph glyph-name="uhungarumlaut" unicode="&#x171;" 
 />
    <glyph glyph-name="Uogonek" unicode="&#x172;" 
 />
    <glyph glyph-name="uogonek" unicode="&#x173;" 
 />
    <glyph glyph-name="Wcircumflex" unicode="&#x174;" 
 />
    <glyph glyph-name="wcircumflex" unicode="&#x175;" 
 />
    <glyph glyph-name="Ycircumflex" unicode="&#x176;" 
 />
    <glyph glyph-name="ycircumflex" unicode="&#x177;" 
 />
    <glyph glyph-name="Ydieresis" unicode="&#x178;" 
 />
    <glyph glyph-name="Zacute" unicode="&#x179;" 
 />
    <glyph glyph-name="zacute" unicode="&#x17a;" 
 />
    <glyph glyph-name="Zdotaccent" unicode="&#x17b;" 
 />
    <glyph glyph-name="zdotaccent" unicode="&#x17c;" 
 />
    <glyph glyph-name="Zcaron" unicode="&#x17d;" 
 />
    <glyph glyph-name="zcaron" unicode="&#x17e;" 
 />
    <glyph glyph-name="florin" unicode="&#x192;" horiz-adv-x="556" 
d="M116 353l15 85h92l32 168q32 125 176 125q28 0 73 -5l-17 -90q-28 5 -41 5q-39 0 -58 -17q-16 -14 -25 -56l-25 -130h102l-15 -85h-102l-73 -381q-12 -58 -60 -99q-49 -43 -111 -43q-29 0 -79 5l15 90q30 -5 48 -5q58 0 69 56l75 377h-91z" />
    <glyph glyph-name="Ohorn" unicode="&#x1a0;" horiz-adv-x="760" 
d="M633 621q91 -106 91 -264q0 -161 -94 -267l-86 75q55 74 55 192q0 115 -51 188q-58 85 -166 85q-109 0 -167 -85q-51 -73 -51 -188q0 -113 51 -187q58 -85 167 -85q70 0 120 37l84 -73q-87 -66 -204 -66q-156 0 -252 110q-91 104 -91 264q0 158 91 264q96 111 252 111
q74 0 134 -25h36q35 3 35 34q0 21 -19 74h108q12 -53 12 -75q0 -89 -55 -119z" />
    <glyph glyph-name="ohorn" unicode="&#x1a1;" horiz-adv-x="593" 
d="M499 74l-79 79q24 47 24 106q0 74 -35 124q-40 58 -112 58t-112 -58q-35 -50 -35 -124q0 -75 35 -125q40 -58 112 -58q49 0 86 29l72 -72q-65 -47 -158 -47q-121 0 -192 77q-69 73 -69 196q0 120 69 195q71 77 192 77q54 0 102 -17h35q33 2 33 32q0 19 -18 69h102
q11 -52 11 -70q0 -85 -55 -114q51 -71 51 -172q0 -111 -59 -185z" />
    <glyph glyph-name="Uhorn" unicode="&#x1af;" horiz-adv-x="828" 
d="M68 257v457h125v-416q0 -96 23 -139q38 -68 145 -68t145 68q23 43 23 139v416h123q27 6 27 33q0 21 -19 74h108q12 -53 12 -75q0 -62 -28 -97.5t-98 -40.5v-351q0 -134 -80 -206q-77 -68 -213 -68q-135 0 -212 68q-81 72 -81 206z" />
    <glyph glyph-name="uhorn" unicode="&#x1b0;" horiz-adv-x="656" 
d="M514 416v-416h-112v72h-2q-47 -86 -147 -86q-193 0 -193 203v328h114v-317q0 -124 99 -124q127 0 127 141v300h108q18 8 18 29q0 19 -18 69h102q11 -52 11 -70q0 -56 -24 -89t-83 -40z" />
    <glyph glyph-name="Scommaaccent" unicode="&#x218;" 
 />
    <glyph glyph-name="scommaaccent" unicode="&#x219;" 
 />
    <glyph glyph-name="uni021A" unicode="&#x21a;" 
 />
    <glyph glyph-name="uni021B" unicode="&#x21b;" 
 />
    <glyph glyph-name="circumflex" unicode="&#x2c6;" horiz-adv-x="241" 
d="M120 679l-70 -90h-92l107 143h111l108 -143h-93z" />
    <glyph glyph-name="caron" unicode="&#x2c7;" horiz-adv-x="241" 
d="M283 732l-108 -143h-111l-107 143h92l70 -89l71 89h93z" />
    <glyph glyph-name="uni02C9" unicode="&#x2c9;" horiz-adv-x="241" 
d="M265 624h-288v65h288v-65z" />
    <glyph glyph-name="breve" unicode="&#x2d8;" horiz-adv-x="241" 
d="M-41 731h58q15 -76 107 -76q85 0 101 76h57q-16 -141 -166 -141q-145 0 -157 141z" />
    <glyph glyph-name="dotaccent" unicode="&#x2d9;" horiz-adv-x="241" 
d="M178 602h-114v108h114v-108z" />
    <glyph glyph-name="ring" unicode="&#x2da;" horiz-adv-x="241" 
d="M79 630q17 -17 42 -17q26 0 43 17q17 19 17 44q0 27 -17 44t-43 17q-25 0 -42 -17q-18 -16 -18 -44q0 -26 18 -44zM48 600q-31 28 -31 74q0 45 31 75q29 28 73 28t73 -28q31 -30 31 -75q0 -46 -31 -74q-31 -29 -73 -29q-44 0 -73 29z" />
    <glyph glyph-name="ogonek" unicode="&#x2db;" horiz-adv-x="241" 
d="M162 0h54q-94 -73 -94 -129q0 -44 39 -44q31 0 52 34l41 -9q-20 -75 -105 -75q-33 0 -58 13q-43 22 -43 77q0 65 114 133z" />
    <glyph glyph-name="tilde" unicode="&#x2dc;" horiz-adv-x="241" 
d="M241 720h56q-9 -56 -33 -81q-28 -34 -78 -34q-32 0 -74 19q-44 18 -68 18q-35 0 -43 -41h-57q8 46 32 76q30 37 72 37q32 0 81 -20q42 -18 62 -18q39 0 50 44z" />
    <glyph glyph-name="hungarumlaut" unicode="&#x2dd;" horiz-adv-x="241" 
d="M164 589l90 143h136l-144 -143h-82zM-35 589l90 143h136l-144 -143h-82z" />
    <glyph glyph-name="uni0394" unicode="&#x394;" horiz-adv-x="683" 
d="M524 98l-190 490l-180 -490h370zM675 0h-666l272 712h110z" />
    <glyph glyph-name="uni03A9" unicode="&#x3a9;" horiz-adv-x="757" 
d="M698 0h-272v188q75 15 119 75q41 58 41 137q0 93 -59 157q-62 65 -154 65q-93 0 -155 -65q-59 -65 -59 -159q0 -172 158 -210v-188h-271v91h183v47q-183 60 -183 268q0 136 96 227q92 88 230 88q137 0 231 -86q95 -89 95 -226q0 -97 -45 -168q-49 -76 -139 -103v-47h184
v-91z" />
    <glyph glyph-name="uni03BC" unicode="&#x3bc;" horiz-adv-x="574" 
d="M514 517v-517h-112v72h-2q-21 -38 -62 -62q-38 -24 -74 -24q-58 0 -90 36v-213h-114v708h114v-317q0 -124 99 -124q127 0 127 141v300h114z" />
    <glyph glyph-name="pi" unicode="&#x3c0;" horiz-adv-x="589" 
d="M566 89v-76q-45 -20 -83 -20q-60 0 -83 38q-17 29 -17 92v264h-211v-387h-101v387h-70v96h562v-96h-79v-249q0 -59 38 -59q24 0 44 10z" />
    <glyph glyph-name="uni1EA0" unicode="&#x1ea0;" horiz-adv-x="667" 
d="M272 -55v-119h123v119h-123zM268 714h133l275 -714h-134l-67 189h-285l-67 -189h-129l110 284h338l-107 307h-3l-86 -245h-119z" />
    <glyph glyph-name="uni1EA1" unicode="&#x1ea1;" horiz-adv-x="556" 
d="M219 -68v-103h106v103h-106zM388 48q-64 -63 -179 -63q-74 0 -124 38q-54 41 -54 114q0 86 64 125q42 26 136 36q18 4 59 9q40 5 50 8q46 13 46 56q0 71 -107 71t-115 -83h-114q6 94 78 137q58 36 158 36q87 0 142 -34q66 -40 66 -117v-16q-4 -31 -44 -66
q-34 -28 -71 -42q-38 -18 -140 -29q-94 -15 -94 -86q0 -35 38 -53q30 -14 68 -14q46 0 83 22q45 29 45 77v17q73 29 115 65v-142q0 -20 5 -30q6 -9 22 -9h12l16 2v-79q-36 -13 -72 -13q-77 0 -89 63z" />
    <glyph glyph-name="uni1EA2" unicode="&#x1ea2;" horiz-adv-x="667" 
d="M296 859h-63q0 34 4.5 48.5t17.5 31.5q27 35 80 35q37 0 61 -17q34 -30 34 -75q0 -44 -37 -72l-4 -4q-15 -15 -18.5 -21.5t-2.5 -22.5h-65q-1 29 8 48t34 41q20 13 20 31q0 25 -32 25q-19 0 -29 -9q-8 -7 -8 -39zM268 714h133l275 -714h-134l-67 189h-285l-67 -189h-129
l110 284h338l-107 307h-3l-86 -245h-119z" />
    <glyph glyph-name="uni1EA3" unicode="&#x1ea3;" horiz-adv-x="556" 
d="M254 679h-63q0 34 4.5 48.5t17.5 31.5q27 35 80 35q37 0 61 -17q34 -30 34 -75q0 -44 -37 -72l-4 -4q-15 -15 -18.5 -21.5t-2.5 -22.5h-65q-1 29 8 48t34 41q20 13 20 31q0 25 -32 25q-19 0 -29 -9q-8 -7 -8 -39zM388 48q-64 -63 -179 -63q-74 0 -124 38q-54 41 -54 114
q0 86 64 125q42 26 136 36q18 4 59 9q40 5 50 8q46 13 46 56q0 71 -107 71t-115 -83h-114q6 94 78 137q58 36 158 36q87 0 142 -34q66 -40 66 -117v-16q-4 -31 -44 -66q-34 -28 -71 -42q-38 -18 -140 -29q-94 -15 -94 -86q0 -35 38 -53q30 -14 68 -14q46 0 83 22
q45 29 45 77v17q73 29 115 65v-142q0 -20 5 -30q6 -9 22 -9h12l16 2v-79q-36 -13 -72 -13q-77 0 -89 63z" />
    <glyph glyph-name="uni1EA4" unicode="&#x1ea4;" horiz-adv-x="667" 
d="M268 714h133l275 -714h-134l-67 189h-285l-67 -189h-129l110 284h338l-107 307h-3l-86 -245h-119zM333 841l-66 -79h-96l114 143h97l115 -143h-97zM451 872l90 143h135l-142 -143h-83z" />
    <glyph glyph-name="uni1EA5" unicode="&#x1ea5;" horiz-adv-x="556" 
d="M388 48q-64 -63 -179 -63q-74 0 -124 38q-54 41 -54 114q0 86 64 125q42 26 136 36q18 4 59 9q40 5 50 8q46 13 46 56q0 71 -107 71t-115 -83h-114q6 94 78 137q58 36 158 36q87 0 142 -34q66 -40 66 -117v-16q-4 -31 -44 -66q-34 -28 -71 -42q-38 -18 -140 -29
q-94 -15 -94 -86q0 -35 38 -53q30 -14 68 -14q46 0 83 22q45 29 45 77v17q73 29 115 65v-142q0 -20 5 -30q6 -9 22 -9h12l16 2v-79q-36 -13 -72 -13q-77 0 -89 63zM284 661l-66 -79h-96l114 143h97l115 -143h-97zM402 692l90 143h135l-142 -143h-83z" />
    <glyph glyph-name="uni1EA6" unicode="&#x1ea6;" horiz-adv-x="667" 
d="M268 714h133l275 -714h-134l-67 189h-285l-67 -189h-129l110 284h338l-107 307h-3l-86 -245h-119zM333 841l-66 -79h-96l114 143h97l115 -143h-97zM347 1014h134l91 -143h-83z" />
    <glyph glyph-name="uni1EA7" unicode="&#x1ea7;" horiz-adv-x="556" 
d="M388 48q-64 -63 -179 -63q-74 0 -124 38q-54 41 -54 114q0 86 64 125q42 26 136 36q18 4 59 9q40 5 50 8q46 13 46 56q0 71 -107 71t-115 -83h-114q6 94 78 137q58 36 158 36q87 0 142 -34q66 -40 66 -117v-16q-4 -31 -44 -66q-34 -28 -71 -42q-38 -18 -140 -29
q-94 -15 -94 -86q0 -35 38 -53q30 -14 68 -14q46 0 83 22q45 29 45 77v17q73 29 115 65v-142q0 -20 5 -30q6 -9 22 -9h12l16 2v-79q-36 -13 -72 -13q-77 0 -89 63zM284 661l-66 -79h-96l114 143h97l115 -143h-97zM298 834h134l91 -143h-83z" />
    <glyph glyph-name="uni1EA8" unicode="&#x1ea8;" horiz-adv-x="667" 
d="M268 714h133l275 -714h-134l-67 189h-285l-67 -189h-129l110 284h338l-107 307h-3l-86 -245h-119zM267 762l66 79l67 -79h97l-115 143h-97l-114 -143h96zM441 968h-63q0 34 4.5 48.5t17.5 31.5q27 35 80 35q37 0 61 -17q34 -30 34 -75q0 -44 -37 -72l-4 -4
q-15 -15 -18.5 -21.5t-2.5 -22.5h-65q-1 29 8 48t34 41q20 13 20 31q0 25 -32 25q-19 0 -29 -9q-8 -7 -8 -39z" />
    <glyph glyph-name="uni1EA9" unicode="&#x1ea9;" horiz-adv-x="556" 
d="M388 48q-64 -63 -179 -63q-74 0 -124 38q-54 41 -54 114q0 86 64 125q42 26 136 36q18 4 59 9q40 5 50 8q46 13 46 56q0 71 -107 71t-115 -83h-114q6 94 78 137q58 36 158 36q87 0 142 -34q66 -40 66 -117v-16q-4 -31 -44 -66q-34 -28 -71 -42q-38 -18 -140 -29
q-94 -15 -94 -86q0 -35 38 -53q30 -14 68 -14q46 0 83 22q45 29 45 77v17q73 29 115 65v-142q0 -20 5 -30q6 -9 22 -9h12l16 2v-79q-36 -13 -72 -13q-77 0 -89 63zM218 582l66 79l67 -79h97l-115 143h-97l-114 -143h96zM392 788h-63q0 34 4.5 48.5t17.5 31.5q27 35 80 35
q37 0 61 -17q34 -30 34 -75q0 -44 -37 -72l-4 -4q-15 -15 -18.5 -21.5t-2.5 -22.5h-65q-1 29 8 48t34 41q20 13 20 31q0 25 -32 25q-19 0 -29 -9q-8 -7 -8 -39z" />
    <glyph glyph-name="uni1EAA" unicode="&#x1eaa;" horiz-adv-x="667" 
d="M268 714h133l275 -714h-134l-67 189h-285l-67 -189h-129l110 284h338l-107 307h-3l-86 -245h-119zM333 841l-66 -79h-96l114 143h97l115 -143h-97zM456 1061h56q-9 -55 -33 -81q-28 -34 -78 -34q-32 0 -74 19q-43 18 -68 18q-35 0 -43 -41h-57q8 46 32 76q30 37 72 37
q32 0 81 -20q42 -18 62 -18q39 0 50 44z" />
    <glyph glyph-name="uni1EAB" unicode="&#x1eab;" horiz-adv-x="556" 
d="M388 48q-64 -63 -179 -63q-74 0 -124 38q-54 41 -54 114q0 86 64 125q42 26 136 36q18 4 59 9q40 5 50 8q46 13 46 56q0 71 -107 71t-115 -83h-114q6 94 78 137q58 36 158 36q87 0 142 -34q66 -40 66 -117v-16q-4 -31 -44 -66q-34 -28 -71 -42q-38 -18 -140 -29
q-94 -15 -94 -86q0 -35 38 -53q30 -14 68 -14q46 0 83 22q45 29 45 77v17q73 29 115 65v-142q0 -20 5 -30q6 -9 22 -9h12l16 2v-79q-36 -13 -72 -13q-77 0 -89 63zM284 661l-66 -79h-96l114 143h97l115 -143h-97zM407 881h56q-9 -55 -33 -81q-28 -34 -78 -34q-32 0 -74 19
q-43 18 -68 18q-35 0 -43 -41h-57q8 46 32 76q30 37 72 37q32 0 81 -20q42 -18 62 -18q39 0 50 44z" />
    <glyph glyph-name="uni1EAC" unicode="&#x1eac;" horiz-adv-x="667" 
d="M268 714h133l275 -714h-134l-67 189h-285l-67 -189h-129l110 284h338l-107 307h-3l-86 -245h-119zM333 841l-66 -79h-96l114 143h97l115 -143h-97zM272 -174v119h123v-119h-123z" />
    <glyph glyph-name="uni1EAD" unicode="&#x1ead;" horiz-adv-x="556" 
d="M388 48q-64 -63 -179 -63q-74 0 -124 38q-54 41 -54 114q0 86 64 125q42 26 136 36q18 4 59 9q40 5 50 8q46 13 46 56q0 71 -107 71t-115 -83h-114q6 94 78 137q58 36 158 36q87 0 142 -34q66 -40 66 -117v-16q-4 -31 -44 -66q-34 -28 -71 -42q-38 -18 -140 -29
q-94 -15 -94 -86q0 -35 38 -53q30 -14 68 -14q46 0 83 22q45 29 45 77v17q73 29 115 65v-142q0 -20 5 -30q6 -9 22 -9h12l16 2v-79q-36 -13 -72 -13q-77 0 -89 63zM284 661l-66 -79h-96l114 143h97l115 -143h-97zM219 -171v103h106v-103h-106z" />
    <glyph glyph-name="uni1EAE" unicode="&#x1eae;" horiz-adv-x="667" 
d="M268 714h133l275 -714h-134l-67 189h-285l-67 -189h-129l110 284h338l-107 307h-3l-86 -245h-119zM196 894h52q26 -62 96 -59q64 -1 90 59h51q-13 -132 -149 -132q-130 0 -140 132zM282 894l90 143h135l-142 -143h-83z" />
    <glyph glyph-name="uni1EAF" unicode="&#x1eaf;" horiz-adv-x="556" 
d="M388 48q-64 -63 -179 -63q-74 0 -124 38q-54 41 -54 114q0 86 64 125q42 26 136 36q18 4 59 9q40 5 50 8q46 13 46 56q0 71 -107 71t-115 -83h-114q6 94 78 137q58 36 158 36q87 0 142 -34q66 -40 66 -117v-16q-4 -31 -44 -66q-34 -28 -71 -42q-38 -18 -140 -29
q-94 -15 -94 -86q0 -35 38 -53q30 -14 68 -14q46 0 83 22q45 29 45 77v17q73 29 115 65v-142q0 -20 5 -30q6 -9 22 -9h12l16 2v-79q-36 -13 -72 -13q-77 0 -89 63zM147 712h52q26 -62 96 -59q64 -1 90 59h51q-14 -132 -149 -132q-129 0 -140 132zM233 712l90 143h135
l-142 -143h-83z" />
    <glyph glyph-name="uni1EB0" unicode="&#x1eb0;" horiz-adv-x="667" 
d="M268 714h133l275 -714h-134l-67 189h-285l-67 -189h-129l110 284h338l-107 307h-3l-86 -245h-119zM196 894h52q26 -62 96 -59q64 -1 90 59h51q-13 -132 -149 -132q-130 0 -140 132zM177 1037h134l91 -143h-83z" />
    <glyph glyph-name="uni1EB1" unicode="&#x1eb1;" horiz-adv-x="556" 
d="M388 48q-64 -63 -179 -63q-74 0 -124 38q-54 41 -54 114q0 86 64 125q42 26 136 36q18 4 59 9q40 5 50 8q46 13 46 56q0 71 -107 71t-115 -83h-114q6 94 78 137q58 36 158 36q87 0 142 -34q66 -40 66 -117v-16q-4 -31 -44 -66q-34 -28 -71 -42q-38 -18 -140 -29
q-94 -15 -94 -86q0 -35 38 -53q30 -14 68 -14q46 0 83 22q45 29 45 77v17q73 29 115 65v-142q0 -20 5 -30q6 -9 22 -9h12l16 2v-79q-36 -13 -72 -13q-77 0 -89 63zM147 712h52q26 -62 96 -59q64 -1 90 59h51q-14 -132 -149 -132q-129 0 -140 132zM128 855h134l91 -143h-83z
" />
    <glyph glyph-name="uni1EB2" unicode="&#x1eb2;" horiz-adv-x="667" 
d="M268 714h133l275 -714h-134l-67 189h-285l-67 -189h-129l110 284h338l-107 307h-3l-86 -245h-119zM248 894h-52q10 -132 140 -132q136 0 149 132h-51q-26 -60 -90 -59q-70 -3 -96 59zM303 991h-63q0 34 4.5 48.5t17.5 31.5q27 35 80 35q37 0 61 -17q34 -30 34 -75
q0 -44 -37 -72l-4 -4q-15 -15 -18.5 -21.5t-2.5 -22.5h-65q-1 29 8 48t34 41q20 13 20 31q0 25 -32 25q-19 0 -29 -9q-8 -7 -8 -39z" />
    <glyph glyph-name="uni1EB3" unicode="&#x1eb3;" horiz-adv-x="556" 
d="M388 48q-64 -63 -179 -63q-74 0 -124 38q-54 41 -54 114q0 86 64 125q42 26 136 36q18 4 59 9q40 5 50 8q46 13 46 56q0 71 -107 71t-115 -83h-114q6 94 78 137q58 36 158 36q87 0 142 -34q66 -40 66 -117v-16q-4 -31 -44 -66q-34 -28 -71 -42q-38 -18 -140 -29
q-94 -15 -94 -86q0 -35 38 -53q30 -14 68 -14q46 0 83 22q45 29 45 77v17q73 29 115 65v-142q0 -20 5 -30q6 -9 22 -9h12l16 2v-79q-36 -13 -72 -13q-77 0 -89 63zM199 712h-52q11 -132 140 -132q135 0 149 132h-51q-26 -60 -90 -59q-70 -3 -96 59zM254 809h-63
q0 34 4.5 48.5t17.5 31.5q27 35 80 35q37 0 61 -17q34 -30 34 -75q0 -44 -37 -72l-4 -4q-15 -15 -18.5 -21.5t-2.5 -22.5h-65q-1 29 8 48t34 41q20 13 20 31q0 25 -32 25q-19 0 -29 -9q-8 -7 -8 -39z" />
    <glyph glyph-name="uni1EB4" unicode="&#x1eb4;" horiz-adv-x="667" 
d="M268 714h133l275 -714h-134l-67 189h-285l-67 -189h-129l110 284h338l-107 307h-3l-86 -245h-119zM196 894h52q26 -62 96 -59q64 -1 90 59h51q-13 -132 -149 -132q-130 0 -140 132zM461 1047h56q-9 -55 -33 -81q-28 -34 -78 -34q-32 0 -74 19q-43 18 -68 18
q-35 0 -43 -41h-57q8 46 32 76q30 37 72 37q32 0 81 -20q42 -18 62 -18q39 0 50 44z" />
    <glyph glyph-name="uni1EB5" unicode="&#x1eb5;" horiz-adv-x="556" 
d="M388 48q-64 -63 -179 -63q-74 0 -124 38q-54 41 -54 114q0 86 64 125q42 26 136 36q18 4 59 9q40 5 50 8q46 13 46 56q0 71 -107 71t-115 -83h-114q6 94 78 137q58 36 158 36q87 0 142 -34q66 -40 66 -117v-16q-4 -31 -44 -66q-34 -28 -71 -42q-38 -18 -140 -29
q-94 -15 -94 -86q0 -35 38 -53q30 -14 68 -14q46 0 83 22q45 29 45 77v17q73 29 115 65v-142q0 -20 5 -30q6 -9 22 -9h12l16 2v-79q-36 -13 -72 -13q-77 0 -89 63zM147 712h52q26 -62 96 -59q64 -1 90 59h51q-14 -132 -149 -132q-129 0 -140 132zM412 865h56q-9 -55 -33 -81
q-28 -34 -78 -34q-32 0 -74 19q-43 18 -68 18q-35 0 -43 -41h-57q8 46 32 76q30 37 72 37q32 0 81 -20q42 -18 62 -18q39 0 50 44z" />
    <glyph glyph-name="uni1EB6" unicode="&#x1eb6;" horiz-adv-x="667" 
d="M268 714h133l275 -714h-134l-67 189h-285l-67 -189h-129l110 284h338l-107 307h-3l-86 -245h-119zM196 894h52q26 -62 96 -59q64 -1 90 59h51q-13 -132 -149 -132q-130 0 -140 132zM272 -174v119h123v-119h-123z" />
    <glyph glyph-name="uni1EB7" unicode="&#x1eb7;" horiz-adv-x="556" 
d="M388 48q-64 -63 -179 -63q-74 0 -124 38q-54 41 -54 114q0 86 64 125q42 26 136 36q18 4 59 9q40 5 50 8q46 13 46 56q0 71 -107 71t-115 -83h-114q6 94 78 137q58 36 158 36q87 0 142 -34q66 -40 66 -117v-16q-4 -31 -44 -66q-34 -28 -71 -42q-38 -18 -140 -29
q-94 -15 -94 -86q0 -35 38 -53q30 -14 68 -14q46 0 83 22q45 29 45 77v17q73 29 115 65v-142q0 -20 5 -30q6 -9 22 -9h12l16 2v-79q-36 -13 -72 -13q-77 0 -89 63zM147 712h52q26 -62 96 -59q64 -1 90 59h51q-14 -132 -149 -132q-129 0 -140 132zM219 -171v103h106v-103
h-106z" />
    <glyph glyph-name="uni1EB8" unicode="&#x1eb8;" horiz-adv-x="630" 
d="M272 -174v119h123v-119h-123zM76 0v714h514v-108h-389v-187h360v-102h-360v-209h396v-108h-521z" />
    <glyph glyph-name="uni1EB9" unicode="&#x1eb9;" horiz-adv-x="556" 
d="M238 -68v-103h106v103h-106zM414 164h108q-17 -84 -84 -130q-62 -46 -149 -46q-121 0 -188 76q-65 74 -65 196q0 20 3 46h111v-1h265q-5 58 -37 96q-38 41 -92 41q-86 0 -122 -76h-110q27 75 86 119q62 47 146 47q118 0 189 -93q69 -89 54 -208h-379q0 -67 34 -107
q37 -46 105 -46q95 0 125 86z" />
    <glyph glyph-name="uni1EBA" unicode="&#x1eba;" horiz-adv-x="630" 
d="M296 859h-63q0 34 4.5 48.5t17.5 31.5q27 35 80 35q37 0 61 -17q34 -30 34 -75q0 -44 -37 -72l-4 -4q-15 -15 -18.5 -21.5t-2.5 -22.5h-65q-1 29 8 48t34 41q20 13 20 31q0 25 -32 25q-19 0 -29 -9q-8 -7 -8 -39zM76 714v-714h521v108h-396v209h360v102h-360v187h389v108
h-514z" />
    <glyph glyph-name="uni1EBB" unicode="&#x1ebb;" horiz-adv-x="556" 
d="M247 679h-63q0 34 4.5 48.5t17.5 31.5q27 35 80 35q37 0 61 -17q34 -30 34 -75q0 -44 -37 -72l-4 -4q-15 -15 -18.5 -21.5t-2.5 -22.5h-65q-1 29 8 48t34 41q20 13 20 31q0 25 -32 25q-19 0 -29 -9q-8 -7 -8 -39zM414 164h108q-17 -84 -84 -130q-62 -46 -149 -46
q-121 0 -188 76q-65 74 -65 196q0 20 3 46h111v-1h265q-5 58 -37 96q-38 41 -92 41q-86 0 -122 -76h-110q27 75 86 119q62 47 146 47q118 0 189 -93q69 -89 54 -208h-379q0 -67 34 -107q37 -46 105 -46q95 0 125 86z" />
    <glyph glyph-name="uni1EBC" unicode="&#x1ebc;" horiz-adv-x="630" 
d="M453 881h56q-9 -55 -33 -81q-28 -34 -78 -34q-32 0 -74 19q-43 18 -68 18q-35 0 -43 -41h-57q8 46 32 76q30 37 72 37q32 0 81 -20q42 -18 62 -18q39 0 50 44zM76 0v714h514v-108h-389v-187h360v-102h-360v-209h396v-108h-521z" />
    <glyph glyph-name="uni1EBD" unicode="&#x1ebd;" horiz-adv-x="556" 
d="M408 701h56q-9 -55 -33 -81q-28 -34 -78 -34q-32 0 -74 19q-44 18 -68 18q-35 0 -43 -41h-57q8 46 32 76q30 37 72 37q32 0 81 -20q42 -18 62 -18q39 0 50 44zM414 164h108q-17 -84 -84 -130q-62 -46 -149 -46q-121 0 -188 76q-65 74 -65 196q0 20 3 46h111v-1h265
q-5 58 -37 96q-38 41 -92 41q-86 0 -122 -76h-110q27 75 86 119q62 47 146 47q118 0 189 -93q69 -89 54 -208h-379q0 -67 34 -107q37 -46 105 -46q95 0 125 86z" />
    <glyph glyph-name="uni1EBE" unicode="&#x1ebe;" horiz-adv-x="630" 
d="M76 0v714h514v-108h-389v-187h360v-102h-360v-209h396v-108h-521zM333 841l-66 -79h-96l114 143h97l115 -143h-97zM451 872l90 143h135l-142 -143h-83z" />
    <glyph glyph-name="uni1EBF" unicode="&#x1ebf;" horiz-adv-x="556" 
d="M414 164h108q-17 -84 -84 -130q-62 -46 -149 -46q-121 0 -188 76q-65 74 -65 196q0 20 3 46h111v-1h265q-5 58 -37 96q-38 41 -92 41q-86 0 -122 -76h-110q27 75 86 119q62 47 146 47q118 0 189 -93q69 -89 54 -208h-379q0 -67 34 -107q37 -46 105 -46q95 0 125 86z
M284 661l-66 -79h-96l114 143h97l115 -143h-97zM402 692l90 143h135l-142 -143h-83z" />
    <glyph glyph-name="uni1EC0" unicode="&#x1ec0;" horiz-adv-x="630" 
d="M76 0v714h514v-108h-389v-187h360v-102h-360v-209h396v-108h-521zM333 841l-66 -79h-96l114 143h97l115 -143h-97zM347 1014h134l91 -143h-83z" />
    <glyph glyph-name="uni1EC1" unicode="&#x1ec1;" horiz-adv-x="556" 
d="M414 164h108q-17 -84 -84 -130q-62 -46 -149 -46q-121 0 -188 76q-65 74 -65 196q0 20 3 46h111v-1h265q-5 58 -37 96q-38 41 -92 41q-86 0 -122 -76h-110q27 75 86 119q62 47 146 47q118 0 189 -93q69 -89 54 -208h-379q0 -67 34 -107q37 -46 105 -46q95 0 125 86z
M284 661l-66 -79h-96l114 143h97l115 -143h-97zM298 834h134l91 -143h-83z" />
    <glyph glyph-name="uni1EC2" unicode="&#x1ec2;" horiz-adv-x="630" 
d="M76 714v-714h521v108h-396v209h360v102h-360v187h389v108h-514zM267 762l66 79l67 -79h97l-115 143h-97l-114 -143h96zM441 968h-63q0 34 4.5 48.5t17.5 31.5q27 35 80 35q37 0 61 -17q34 -30 34 -75q0 -44 -37 -72l-4 -4q-15 -15 -18.5 -21.5t-2.5 -22.5h-65q-1 29 8 48
t34 41q20 13 20 31q0 25 -32 25q-19 0 -29 -9q-8 -7 -8 -39z" />
    <glyph glyph-name="uni1EC3" unicode="&#x1ec3;" horiz-adv-x="556" 
d="M414 164h108q-17 -84 -84 -130q-62 -46 -149 -46q-121 0 -188 76q-65 74 -65 196q0 20 3 46h111v-1h265q-5 58 -37 96q-38 41 -92 41q-86 0 -122 -76h-110q27 75 86 119q62 47 146 47q118 0 189 -93q69 -89 54 -208h-379q0 -67 34 -107q37 -46 105 -46q95 0 125 86z
M218 582l66 79l67 -79h97l-115 143h-97l-114 -143h96zM392 788h-63q0 34 4.5 48.5t17.5 31.5q27 35 80 35q37 0 61 -17q34 -30 34 -75q0 -44 -37 -72l-4 -4q-15 -15 -18.5 -21.5t-2.5 -22.5h-65q-1 29 8 48t34 41q20 13 20 31q0 25 -32 25q-19 0 -29 -9q-8 -7 -8 -39z" />
    <glyph glyph-name="uni1EC4" unicode="&#x1ec4;" horiz-adv-x="630" 
d="M76 0v714h514v-108h-389v-187h360v-102h-360v-209h396v-108h-521zM333 841l-66 -79h-96l114 143h97l115 -143h-97zM456 1061h56q-9 -55 -33 -81q-28 -34 -78 -34q-32 0 -74 19q-43 18 -68 18q-35 0 -43 -41h-57q8 46 32 76q30 37 72 37q32 0 81 -20q42 -18 62 -18
q39 0 50 44z" />
    <glyph glyph-name="uni1EC5" unicode="&#x1ec5;" horiz-adv-x="556" 
d="M414 164h108q-17 -84 -84 -130q-62 -46 -149 -46q-121 0 -188 76q-65 74 -65 196q0 20 3 46h111v-1h265q-5 58 -37 96q-38 41 -92 41q-86 0 -122 -76h-110q27 75 86 119q62 47 146 47q118 0 189 -93q69 -89 54 -208h-379q0 -67 34 -107q37 -46 105 -46q95 0 125 86z
M284 661l-66 -79h-96l114 143h97l115 -143h-97zM407 881h56q-9 -55 -33 -81q-28 -34 -78 -34q-32 0 -74 19q-43 18 -68 18q-35 0 -43 -41h-57q8 46 32 76q30 37 72 37q32 0 81 -20q42 -18 62 -18q39 0 50 44z" />
    <glyph glyph-name="uni1EC6" unicode="&#x1ec6;" horiz-adv-x="630" 
d="M76 0v714h514v-108h-389v-187h360v-102h-360v-209h396v-108h-521zM333 841l-66 -79h-96l114 143h97l115 -143h-97zM272 -174v119h123v-119h-123z" />
    <glyph glyph-name="uni1EC7" unicode="&#x1ec7;" horiz-adv-x="556" 
d="M414 164h108q-17 -84 -84 -130q-62 -46 -149 -46q-121 0 -188 76q-65 74 -65 196q0 20 3 46h111v-1h265q-5 58 -37 96q-38 41 -92 41q-86 0 -122 -76h-110q27 75 86 119q62 47 146 47q118 0 189 -93q69 -89 54 -208h-379q0 -67 34 -107q37 -46 105 -46q95 0 125 86z
M284 661l-66 -79h-96l114 143h97l115 -143h-97zM238 -171v103h106v-103h-106z" />
    <glyph glyph-name="uni1EC8" unicode="&#x1ec8;" 
d="M100 859h-63q0 34 4.5 48.5t17.5 31.5q27 35 80 35q37 0 61 -17q34 -30 34 -75q0 -44 -37 -72l-4 -4q-15 -15 -18.5 -21.5t-2.5 -22.5h-65q-1 29 8 48t34 41q20 13 20 31q0 25 -32 25q-19 0 -29 -9q-8 -7 -8 -39zM76 714v-714h125v714h-125z" />
    <glyph glyph-name="uni1EC9" unicode="&#x1ec9;" horiz-adv-x="241" 
d="M63 517v-517h114v517h-114zM80 679h-63q0 34 4.5 48.5t17.5 31.5q27 35 80 35q37 0 61 -17q34 -30 34 -75q0 -44 -37 -72l-4 -4q-15 -15 -18.5 -21.5t-2.5 -22.5h-65q-1 29 8 48t34 41q20 13 20 31q0 25 -32 25q-19 0 -29 -9q-8 -7 -8 -39z" />
    <glyph glyph-name="uni1ECA" unicode="&#x1eca;" 
d="M85 -158v103h106v-103h-106zM76 0v714h125v-714h-125z" />
    <glyph glyph-name="uni1ECB" unicode="&#x1ecb;" horiz-adv-x="241" 
d="M68 -171v103h106v-103h-106zM63 606v108h114v-108h-114zM63 0v517h114v-517h-114z" />
    <glyph glyph-name="uni1ECC" unicode="&#x1ecc;" horiz-adv-x="760" 
d="M321 -64v-119h123v119h-123zM633 621q91 -106 91 -264q0 -161 -94 -267l-86 75q55 74 55 192q0 115 -51 188q-58 85 -166 85q-109 0 -167 -85q-51 -73 -51 -188q0 -113 51 -187q58 -85 167 -85q70 0 120 37l84 -73q-87 -66 -204 -66q-156 0 -252 110q-91 104 -91 264
q0 158 91 264q96 111 252 111q155 0 251 -111z" />
    <glyph glyph-name="uni1ECD" unicode="&#x1ecd;" horiz-adv-x="593" 
d="M246 -68v-103h106v103h-106zM499 74l-79 79q24 47 24 106q0 74 -35 124q-40 58 -112 58t-112 -58q-35 -50 -35 -124q0 -75 35 -125q40 -58 112 -58q49 0 86 29l72 -72q-65 -47 -158 -47q-121 0 -192 77q-69 73 -69 196q0 120 69 195q71 77 192 77t192 -77q69 -75 69 -195
q0 -111 -59 -185z" />
    <glyph glyph-name="uni1ECE" unicode="&#x1ece;" horiz-adv-x="760" 
d="M633 621q91 -106 91 -264q0 -161 -94 -267l-86 75q55 74 55 192q0 115 -51 188q-58 85 -166 85q-109 0 -167 -85q-51 -73 -51 -188q0 -113 51 -187q58 -85 167 -85q70 0 120 37l84 -73q-87 -66 -204 -66q-156 0 -252 110q-91 104 -91 264q0 158 91 264q96 111 252 111
q155 0 251 -111zM343 869h-63q0 34 4.5 48.5t17.5 31.5q27 35 80 35q37 0 61 -17q34 -30 34 -75q0 -44 -37 -72l-4 -4q-15 -15 -18.5 -21.5t-2.5 -22.5h-65q-1 29 8 48t34 41q20 13 20 31q0 25 -32 25q-19 0 -29 -9q-8 -7 -8 -39z" />
    <glyph glyph-name="uni1ECF" unicode="&#x1ecf;" horiz-adv-x="593" 
d="M499 74l-79 79q24 47 24 106q0 74 -35 124q-40 58 -112 58t-112 -58q-35 -50 -35 -124q0 -75 35 -125q40 -58 112 -58q49 0 86 29l72 -72q-65 -47 -158 -47q-121 0 -192 77q-69 73 -69 196q0 120 69 195q71 77 192 77t192 -77q69 -75 69 -195q0 -111 -59 -185zM256 679
h-63q0 34 4.5 48.5t17.5 31.5q27 35 80 35q37 0 61 -17q34 -30 34 -75q0 -44 -37 -72l-4 -4q-15 -15 -18.5 -21.5t-2.5 -22.5h-65q-1 29 8 48t34 41q20 13 20 31q0 25 -32 25q-19 0 -29 -9q-8 -7 -8 -39z" />
    <glyph glyph-name="uni1ED0" unicode="&#x1ed0;" horiz-adv-x="760" 
d="M633 621q91 -106 91 -264q0 -161 -94 -267l-86 75q55 74 55 192q0 115 -51 188q-58 85 -166 85q-109 0 -167 -85q-51 -73 -51 -188q0 -113 51 -187q58 -85 167 -85q70 0 120 37l84 -73q-87 -66 -204 -66q-156 0 -252 110q-91 104 -91 264q0 158 91 264q96 111 252 111
q155 0 251 -111zM381 851l-66 -79h-96l114 143h97l115 -143h-97zM499 882l90 143h135l-142 -143h-83z" />
    <glyph glyph-name="uni1ED1" unicode="&#x1ed1;" horiz-adv-x="593" 
d="M499 74l-79 79q24 47 24 106q0 74 -35 124q-40 58 -112 58t-112 -58q-35 -50 -35 -124q0 -75 35 -125q40 -58 112 -58q49 0 86 29l72 -72q-65 -47 -158 -47q-121 0 -192 77q-69 73 -69 196q0 120 69 195q71 77 192 77t192 -77q69 -75 69 -195q0 -111 -59 -185zM298 661
l-66 -79h-96l114 143h97l115 -143h-97zM416 692l90 143h135l-142 -143h-83z" />
    <glyph glyph-name="uni1ED2" unicode="&#x1ed2;" horiz-adv-x="760" 
d="M633 621q91 -106 91 -264q0 -161 -94 -267l-86 75q55 74 55 192q0 115 -51 188q-58 85 -166 85q-109 0 -167 -85q-51 -73 -51 -188q0 -113 51 -187q58 -85 167 -85q70 0 120 37l84 -73q-87 -66 -204 -66q-156 0 -252 110q-91 104 -91 264q0 158 91 264q96 111 252 111
q155 0 251 -111zM381 851l-66 -79h-96l114 143h97l115 -143h-97zM395 1024h134l91 -143h-83z" />
    <glyph glyph-name="uni1ED3" unicode="&#x1ed3;" horiz-adv-x="593" 
d="M499 74l-79 79q24 47 24 106q0 74 -35 124q-40 58 -112 58t-112 -58q-35 -50 -35 -124q0 -75 35 -125q40 -58 112 -58q49 0 86 29l72 -72q-65 -47 -158 -47q-121 0 -192 77q-69 73 -69 196q0 120 69 195q71 77 192 77t192 -77q69 -75 69 -195q0 -111 -59 -185zM298 661
l-66 -79h-96l114 143h97l115 -143h-97zM312 834h134l91 -143h-83z" />
    <glyph glyph-name="uni1ED4" unicode="&#x1ed4;" horiz-adv-x="760" 
d="M633 621q91 -106 91 -264q0 -161 -94 -267l-86 75q55 74 55 192q0 115 -51 188q-58 85 -166 85q-109 0 -167 -85q-51 -73 -51 -188q0 -113 51 -187q58 -85 167 -85q70 0 120 37l84 -73q-87 -66 -204 -66q-156 0 -252 110q-91 104 -91 264q0 158 91 264q96 111 252 111
q155 0 251 -111zM315 772l66 79l67 -79h97l-115 143h-97l-114 -143h96zM489 978h-63q0 34 4.5 48.5t17.5 31.5q27 35 80 35q37 0 61 -17q34 -30 34 -75q0 -44 -37 -72l-4 -4q-15 -15 -18.5 -21.5t-2.5 -22.5h-65q-1 29 8 48t34 41q20 13 20 31q0 25 -32 25q-19 0 -29 -9
q-8 -7 -8 -39z" />
    <glyph glyph-name="uni1ED5" unicode="&#x1ed5;" horiz-adv-x="593" 
d="M499 74l-79 79q24 47 24 106q0 74 -35 124q-40 58 -112 58t-112 -58q-35 -50 -35 -124q0 -75 35 -125q40 -58 112 -58q49 0 86 29l72 -72q-65 -47 -158 -47q-121 0 -192 77q-69 73 -69 196q0 120 69 195q71 77 192 77t192 -77q69 -75 69 -195q0 -111 -59 -185zM232 582
l66 79l67 -79h97l-115 143h-97l-114 -143h96zM406 788h-63q0 34 4.5 48.5t17.5 31.5q27 35 80 35q37 0 61 -17q34 -30 34 -75q0 -44 -37 -72l-4 -4q-15 -15 -18.5 -21.5t-2.5 -22.5h-65q-1 29 8 48t34 41q20 13 20 31q0 25 -32 25q-19 0 -29 -9q-8 -7 -8 -39z" />
    <glyph glyph-name="uni1ED6" unicode="&#x1ed6;" horiz-adv-x="760" 
d="M633 621q91 -106 91 -264q0 -161 -94 -267l-86 75q55 74 55 192q0 115 -51 188q-58 85 -166 85q-109 0 -167 -85q-51 -73 -51 -188q0 -113 51 -187q58 -85 167 -85q70 0 120 37l84 -73q-87 -66 -204 -66q-156 0 -252 110q-91 104 -91 264q0 158 91 264q96 111 252 111
q155 0 251 -111zM381 851l-66 -79h-96l114 143h97l115 -143h-97zM504 1071h56q-9 -55 -33 -81q-28 -34 -78 -34q-32 0 -74 19q-43 18 -68 18q-35 0 -43 -41h-57q8 46 32 76q30 37 72 37q32 0 81 -20q42 -18 62 -18q39 0 50 44z" />
    <glyph glyph-name="uni1ED7" unicode="&#x1ed7;" horiz-adv-x="593" 
d="M499 74l-79 79q24 47 24 106q0 74 -35 124q-40 58 -112 58t-112 -58q-35 -50 -35 -124q0 -75 35 -125q40 -58 112 -58q49 0 86 29l72 -72q-65 -47 -158 -47q-121 0 -192 77q-69 73 -69 196q0 120 69 195q71 77 192 77t192 -77q69 -75 69 -195q0 -111 -59 -185zM298 661
l-66 -79h-96l114 143h97l115 -143h-97zM421 881h56q-9 -55 -33 -81q-28 -34 -78 -34q-32 0 -74 19q-44 18 -68 18q-35 0 -43 -41h-57q8 46 32 76q30 37 72 37q32 0 81 -20q42 -18 62 -18q39 0 50 44z" />
    <glyph glyph-name="uni1ED8" unicode="&#x1ed8;" horiz-adv-x="760" 
d="M633 621q91 -106 91 -264q0 -161 -94 -267l-86 75q55 74 55 192q0 115 -51 188q-58 85 -166 85q-109 0 -167 -85q-51 -73 -51 -188q0 -113 51 -187q58 -85 167 -85q70 0 120 37l84 -73q-87 -66 -204 -66q-156 0 -252 110q-91 104 -91 264q0 158 91 264q96 111 252 111
q155 0 251 -111zM381 851l-66 -79h-96l114 143h97l115 -143h-97zM321 -183v119h123v-119h-123z" />
    <glyph glyph-name="uni1ED9" unicode="&#x1ed9;" horiz-adv-x="593" 
d="M499 74l-79 79q24 47 24 106q0 74 -35 124q-40 58 -112 58t-112 -58q-35 -50 -35 -124q0 -75 35 -125q40 -58 112 -58q49 0 86 29l72 -72q-65 -47 -158 -47q-121 0 -192 77q-69 73 -69 196q0 120 69 195q71 77 192 77t192 -77q69 -75 69 -195q0 -111 -59 -185zM298 661
l-66 -79h-96l114 143h97l115 -143h-97zM246 -171v103h106v-103h-106z" />
    <glyph glyph-name="uni1EDA" unicode="&#x1eda;" horiz-adv-x="760" 
d="M633 621q91 -106 91 -264q0 -161 -94 -267l-86 75q55 74 55 192q0 115 -51 188q-58 85 -166 85q-109 0 -167 -85q-51 -73 -51 -188q0 -113 51 -187q58 -85 167 -85q70 0 120 37l84 -73q-87 -66 -204 -66q-156 0 -252 110q-91 104 -91 264q0 158 91 264q96 111 252 111
q74 0 134 -25h36q35 3 35 34q0 21 -19 74h108q12 -53 12 -75q0 -89 -55 -119zM297 773l90 143h135l-142 -143h-83z" />
    <glyph glyph-name="uni1EDB" unicode="&#x1edb;" horiz-adv-x="593" 
d="M499 74l-79 79q24 47 24 106q0 74 -35 124q-40 58 -112 58t-112 -58q-35 -50 -35 -124q0 -75 35 -125q40 -58 112 -58q49 0 86 29l72 -72q-65 -47 -158 -47q-121 0 -192 77q-69 73 -69 196q0 120 69 195q71 77 192 77q54 0 102 -17h35q33 2 33 32q0 19 -18 69h102
q11 -52 11 -70q0 -85 -55 -114q51 -71 51 -172q0 -111 -59 -185zM213 582l90 143h135l-142 -143h-83z" />
    <glyph glyph-name="uni1EDC" unicode="&#x1edc;" horiz-adv-x="760" 
d="M633 621q91 -106 91 -264q0 -161 -94 -267l-86 75q55 74 55 192q0 115 -51 188q-58 85 -166 85q-109 0 -167 -85q-51 -73 -51 -188q0 -113 51 -187q58 -85 167 -85q70 0 120 37l84 -73q-87 -66 -204 -66q-156 0 -252 110q-91 104 -91 264q0 158 91 264q96 111 252 111
q74 0 134 -25h36q35 3 35 34q0 21 -19 74h108q12 -53 12 -75q0 -89 -55 -119zM240 915h134l91 -143h-83z" />
    <glyph glyph-name="uni1EDD" unicode="&#x1edd;" horiz-adv-x="593" 
d="M499 74l-79 79q24 47 24 106q0 74 -35 124q-40 58 -112 58t-112 -58q-35 -50 -35 -124q0 -75 35 -125q40 -58 112 -58q49 0 86 29l72 -72q-65 -47 -158 -47q-121 0 -192 77q-69 73 -69 196q0 120 69 195q71 77 192 77q54 0 102 -17h35q33 2 33 32q0 19 -18 69h102
q11 -52 11 -70q0 -85 -55 -114q51 -71 51 -172q0 -111 -59 -185zM153 724h134l91 -143h-83z" />
    <glyph glyph-name="uni1EDE" unicode="&#x1ede;" horiz-adv-x="760" 
d="M633 621q91 -106 91 -264q0 -161 -94 -267l-86 75q55 74 55 192q0 115 -51 188q-58 85 -166 85q-109 0 -167 -85q-51 -73 -51 -188q0 -113 51 -187q58 -85 167 -85q70 0 120 37l84 -73q-87 -66 -204 -66q-156 0 -252 110q-91 104 -91 264q0 158 91 264q96 111 252 111
q74 0 134 -25h36q35 3 35 34q0 21 -19 74h108q12 -53 12 -75q0 -89 -55 -119zM343 869h-63q0 34 4.5 48.5t17.5 31.5q27 35 80 35q37 0 61 -17q34 -30 34 -75q0 -44 -37 -72l-4 -4q-15 -15 -18.5 -21.5t-2.5 -22.5h-65q-1 29 8 48t34 41q20 13 20 31q0 25 -32 25
q-19 0 -29 -9q-8 -7 -8 -39z" />
    <glyph glyph-name="uni1EDF" unicode="&#x1edf;" horiz-adv-x="593" 
d="M499 74l-79 79q24 47 24 106q0 74 -35 124q-40 58 -112 58t-112 -58q-35 -50 -35 -124q0 -75 35 -125q40 -58 112 -58q49 0 86 29l72 -72q-65 -47 -158 -47q-121 0 -192 77q-69 73 -69 196q0 120 69 195q71 77 192 77q54 0 102 -17h35q33 2 33 32q0 19 -18 69h102
q11 -52 11 -70q0 -85 -55 -114q51 -71 51 -172q0 -111 -59 -185zM256 679h-63q0 34 4.5 48.5t17.5 31.5q27 35 80 35q37 0 61 -17q34 -30 34 -75q0 -44 -37 -72l-4 -4q-15 -15 -18.5 -21.5t-2.5 -22.5h-65q-1 29 8 48t34 41q20 13 20 31q0 25 -32 25q-19 0 -29 -9
q-8 -7 -8 -39z" />
    <glyph glyph-name="uni1EE0" unicode="&#x1ee0;" horiz-adv-x="760" 
d="M633 621q91 -106 91 -264q0 -161 -94 -267l-86 75q55 74 55 192q0 115 -51 188q-58 85 -166 85q-109 0 -167 -85q-51 -73 -51 -188q0 -113 51 -187q58 -85 167 -85q70 0 120 37l84 -73q-87 -66 -204 -66q-156 0 -252 110q-91 104 -91 264q0 158 91 264q96 111 252 111
q74 0 134 -25h36q35 3 35 34q0 21 -19 74h108q12 -53 12 -75q0 -89 -55 -119zM503 891h56q-9 -55 -33 -81q-28 -34 -78 -34q-32 0 -74 19q-44 18 -68 18q-35 0 -43 -41h-57q8 46 32 76q30 37 72 37q32 0 81 -20q42 -18 62 -18q39 0 50 44z" />
    <glyph glyph-name="uni1EE1" unicode="&#x1ee1;" horiz-adv-x="593" 
d="M499 74l-79 79q24 47 24 106q0 74 -35 124q-40 58 -112 58t-112 -58q-35 -50 -35 -124q0 -75 35 -125q40 -58 112 -58q49 0 86 29l72 -72q-65 -47 -158 -47q-121 0 -192 77q-69 73 -69 196q0 120 69 195q71 77 192 77q54 0 102 -17h35q33 2 33 32q0 19 -18 69h102
q11 -52 11 -70q0 -85 -55 -114q51 -71 51 -172q0 -111 -59 -185zM406 701h51q-7 -55 -30 -81q-25 -34 -72 -34q-29 0 -68 19q-39 18 -62 18q-32 0 -40 -41h-52q6 44 29 76q28 37 66 37q30 0 75 -20q37 -18 57 -18q35 0 46 44z" />
    <glyph glyph-name="uni1EE2" unicode="&#x1ee2;" horiz-adv-x="760" 
d="M633 621q91 -106 91 -264q0 -161 -94 -267l-86 75q55 74 55 192q0 115 -51 188q-58 85 -166 85q-109 0 -167 -85q-51 -73 -51 -188q0 -113 51 -187q58 -85 167 -85q70 0 120 37l84 -73q-87 -66 -204 -66q-156 0 -252 110q-91 104 -91 264q0 158 91 264q96 111 252 111
q74 0 134 -25h36q35 3 35 34q0 21 -19 74h108q12 -53 12 -75q0 -89 -55 -119zM321 -64v-119h123v119h-123z" />
    <glyph glyph-name="uni1EE3" unicode="&#x1ee3;" horiz-adv-x="593" 
d="M499 74l-79 79q24 47 24 106q0 74 -35 124q-40 58 -112 58t-112 -58q-35 -50 -35 -124q0 -75 35 -125q40 -58 112 -58q49 0 86 29l72 -72q-65 -47 -158 -47q-121 0 -192 77q-69 73 -69 196q0 120 69 195q71 77 192 77q54 0 102 -17h35q33 2 33 32q0 19 -18 69h102
q11 -52 11 -70q0 -85 -55 -114q51 -71 51 -172q0 -111 -59 -185zM246 -68v-103h106v103h-106z" />
    <glyph glyph-name="uni1EE4" unicode="&#x1ee4;" horiz-adv-x="722" 
d="M299 -174v119h123v-119h-123zM68 257v457h125v-416q0 -96 23 -139q38 -68 145 -68t145 68q23 43 23 139v416h125v-457q0 -134 -80 -206q-77 -68 -213 -68q-135 0 -212 68q-81 72 -81 206z" />
    <glyph glyph-name="uni1EE5" unicode="&#x1ee5;" horiz-adv-x="574" 
d="M229 -171v103h106v-103h-106zM514 517v-517h-112v72h-2q-47 -86 -147 -86q-193 0 -193 203v328h114v-317q0 -124 99 -124q127 0 127 141v300h114z" />
    <glyph glyph-name="uni1EE6" unicode="&#x1ee6;" horiz-adv-x="722" 
d="M326 869h-63q0 34 4.5 48.5t17.5 31.5q27 35 80 35q37 0 61 -17q34 -30 34 -75q0 -44 -37 -72l-4 -4q-15 -15 -18.5 -21.5t-2.5 -22.5h-65q-1 29 8 48t34 41q20 13 20 31q0 25 -32 25q-19 0 -29 -9q-8 -7 -8 -39zM68 714v-457q0 -134 81 -206q77 -68 212 -68
q136 0 213 68q80 72 80 206v457h-125v-416q0 -96 -23 -139q-38 -68 -145 -68t-145 68q-23 43 -23 139v416h-125z" />
    <glyph glyph-name="uni1EE7" unicode="&#x1ee7;" horiz-adv-x="574" 
d="M251 679h-63q0 34 4.5 48.5t17.5 31.5q27 35 80 35q37 0 61 -17q34 -30 34 -75q0 -44 -37 -72l-4 -4q-15 -15 -18.5 -21.5t-2.5 -22.5h-65q-1 29 8 48t34 41q20 13 20 31q0 25 -32 25q-19 0 -29 -9q-8 -7 -8 -39zM514 0v517h-114v-300q0 -141 -127 -141q-99 0 -99 124
v317h-114v-328q0 -203 193 -203q100 0 147 86h2v-72h112z" />
    <glyph glyph-name="uni1EE8" unicode="&#x1ee8;" horiz-adv-x="828" 
d="M68 257v457h125v-416q0 -96 23 -139q38 -68 145 -68t145 68q23 43 23 139v416h123q27 6 27 33q0 21 -19 74h108q12 -53 12 -75q0 -62 -28 -97.5t-98 -40.5v-351q0 -134 -80 -206q-77 -68 -213 -68q-135 0 -212 68q-81 72 -81 206zM292 763l90 143h135l-142 -143h-83z" />
    <glyph glyph-name="uni1EE9" unicode="&#x1ee9;" horiz-adv-x="656" 
d="M514 416v-416h-112v72h-2q-47 -86 -147 -86q-193 0 -193 203v328h114v-317q0 -124 99 -124q127 0 127 141v300h108q18 8 18 29q0 19 -18 69h102q11 -52 11 -70q0 -56 -24 -89t-83 -40zM212 582l90 143h135l-142 -143h-83z" />
    <glyph glyph-name="uni1EEA" unicode="&#x1eea;" horiz-adv-x="828" 
d="M68 257v457h125v-416q0 -96 23 -139q38 -68 145 -68t145 68q23 43 23 139v416h123q27 6 27 33q0 21 -19 74h108q12 -53 12 -75q0 -62 -28 -97.5t-98 -40.5v-351q0 -134 -80 -206q-77 -68 -213 -68q-135 0 -212 68q-81 72 -81 206zM204 905h134l91 -143h-83z" />
    <glyph glyph-name="uni1EEB" unicode="&#x1eeb;" horiz-adv-x="656" 
d="M514 416v-416h-112v72h-2q-47 -86 -147 -86q-193 0 -193 203v328h114v-317q0 -124 99 -124q127 0 127 141v300h108q18 8 18 29q0 19 -18 69h102q11 -52 11 -70q0 -56 -24 -89t-83 -40zM141 724h134l91 -143h-83z" />
    <glyph glyph-name="uni1EEC" unicode="&#x1eec;" horiz-adv-x="828" 
d="M68 714v-457q0 -134 81 -206q77 -68 212 -68q136 0 213 68q80 72 80 206v351q70 5 98 40.5t28 97.5q0 22 -12 75h-108q19 -53 19 -74q0 -27 -27 -33h-123v-416q0 -96 -23 -139q-38 -68 -145 -68t-145 68q-23 43 -23 139v416h-125zM326 869h-63q0 34 4.5 48.5t17.5 31.5
q27 35 80 35q37 0 61 -17q34 -30 34 -75q0 -44 -37 -72l-4 -4q-15 -15 -18.5 -21.5t-2.5 -22.5h-65q-1 29 8 48t34 41q20 13 20 31q0 25 -32 25q-19 0 -29 -9q-8 -7 -8 -39z" />
    <glyph glyph-name="uni1EED" unicode="&#x1eed;" horiz-adv-x="656" 
d="M514 0v416q59 7 83 40t24 89q0 18 -11 70h-102q18 -50 18 -69q0 -21 -18 -29h-108v-300q0 -141 -127 -141q-99 0 -99 124v317h-114v-328q0 -203 193 -203q100 0 147 86h2v-72h112zM251 679h-63q0 34 4.5 48.5t17.5 31.5q27 35 80 35q37 0 61 -17q34 -30 34 -75
q0 -44 -37 -72l-4 -4q-15 -15 -18.5 -21.5t-2.5 -22.5h-65q-1 29 8 48t34 41q20 13 20 31q0 25 -32 25q-19 0 -29 -9q-8 -7 -8 -39z" />
    <glyph glyph-name="uni1EEE" unicode="&#x1eee;" horiz-adv-x="828" 
d="M68 257v457h125v-416q0 -96 23 -139q38 -68 145 -68t145 68q23 43 23 139v416h123q27 6 27 33q0 21 -19 74h108q12 -53 12 -75q0 -62 -28 -97.5t-98 -40.5v-351q0 -134 -80 -206q-77 -68 -213 -68q-135 0 -212 68q-81 72 -81 206zM484 881h56q-9 -55 -33 -81
q-28 -34 -78 -34q-32 0 -74 19q-44 18 -68 18q-35 0 -43 -41h-57q8 46 32 76q30 37 72 37q32 0 81 -20q42 -18 62 -18q39 0 50 44z" />
    <glyph glyph-name="uni1EEF" unicode="&#x1eef;" horiz-adv-x="656" 
d="M514 416v-416h-112v72h-2q-47 -86 -147 -86q-193 0 -193 203v328h114v-317q0 -124 99 -124q127 0 127 141v300h108q18 8 18 29q0 19 -18 69h102q11 -52 11 -70q0 -56 -24 -89t-83 -40zM414 701h56q-9 -55 -33 -81q-28 -34 -78 -34q-32 0 -74 19q-44 18 -68 18
q-35 0 -43 -41h-57q8 46 32 76q30 37 72 37q32 0 81 -20q42 -18 62 -18q39 0 50 44z" />
    <glyph glyph-name="uni1EF0" unicode="&#x1ef0;" horiz-adv-x="828" 
d="M68 257v457h125v-416q0 -96 23 -139q38 -68 145 -68t145 68q23 43 23 139v416h123q27 6 27 33q0 21 -19 74h108q12 -53 12 -75q0 -62 -28 -97.5t-98 -40.5v-351q0 -134 -80 -206q-77 -68 -213 -68q-135 0 -212 68q-81 72 -81 206zM299 -174v119h123v-119h-123z" />
    <glyph glyph-name="uni1EF1" unicode="&#x1ef1;" horiz-adv-x="656" 
d="M514 416v-416h-112v72h-2q-47 -86 -147 -86q-193 0 -193 203v328h114v-317q0 -124 99 -124q127 0 127 141v300h108q18 8 18 29q0 19 -18 69h102q11 -52 11 -70q0 -56 -24 -89t-83 -40zM229 -171v103h106v-103h-106z" />
    <glyph glyph-name="Ygrave" unicode="&#x1ef2;" horiz-adv-x="648" 
d="M176 905h134l91 -143h-83zM-7 713h146l155 -263l-66 -117zM511 711h139l-265 -431v-278h-124v274l108 190z" />
    <glyph glyph-name="ygrave" unicode="&#x1ef3;" horiz-adv-x="519" 
d="M106 724h134l91 -143h-83zM199 2l-196 515h125l135 -386h2l131 386h119l-201 -545q-38 -94 -60 -123q-44 -54 -123 -54q-40 0 -79 6v96q41 -7 54 -7q59 0 80 72z" />
    <glyph glyph-name="uni1EF4" unicode="&#x1ef4;" horiz-adv-x="648" 
d="M262 -55v-119h123v119h-123zM-7 713h146l155 -263l-66 -117zM511 711h139l-265 -431v-278h-124v274l108 190z" />
    <glyph glyph-name="uni1EF5" unicode="&#x1ef5;" horiz-adv-x="519" 
d="M341 -171v103h106v-103h-106zM199 2l-196 515h125l135 -386h2l131 386h119l-201 -545q-38 -94 -60 -123q-44 -54 -123 -54q-40 0 -79 6v96q41 -7 54 -7q59 0 80 72z" />
    <glyph glyph-name="uni1EF6" unicode="&#x1ef6;" horiz-adv-x="648" 
d="M292 869h-63q0 34 4.5 48.5t17.5 31.5q27 35 80 35q37 0 61 -17q34 -30 34 -75q0 -44 -37 -72l-4 -4q-15 -15 -18.5 -21.5t-2.5 -22.5h-65q-1 29 8 48t34 41q20 13 20 31q0 25 -32 25q-19 0 -29 -9q-8 -7 -8 -39zM-7 713h146l155 -263l-66 -117zM511 711h139l-265 -431
v-278h-124v274l108 190z" />
    <glyph glyph-name="uni1EF7" unicode="&#x1ef7;" horiz-adv-x="519" 
d="M227 679h-63q0 34 4.5 48.5t17.5 31.5q27 35 80 35q37 0 61 -17q34 -30 34 -75q0 -44 -37 -72l-4 -4q-15 -15 -18.5 -21.5t-2.5 -22.5h-65q-1 29 8 48t34 41q20 13 20 31q0 25 -32 25q-19 0 -29 -9q-8 -7 -8 -39zM3 517l196 -515l-13 -40q-21 -72 -80 -72q-13 0 -54 7
v-96q39 -6 79 -6q79 0 123 54q22 29 60 123l201 545h-119l-131 -386h-2l-135 386h-125z" />
    <glyph glyph-name="uni1EF8" unicode="&#x1ef8;" horiz-adv-x="648" 
d="M446 881h56q-9 -55 -33 -81q-28 -34 -78 -34q-32 0 -74 19q-43 18 -68 18q-35 0 -43 -41h-57q8 46 32 76q30 37 72 37q32 0 81 -20q42 -18 62 -18q39 0 50 44zM-7 713h146l155 -263l-66 -117zM511 711h139l-265 -431v-278h-124v274l108 190z" />
    <glyph glyph-name="uni1EF9" unicode="&#x1ef9;" horiz-adv-x="519" 
d="M386 701h56q-9 -55 -33 -81q-28 -34 -78 -34q-32 0 -74 19q-44 18 -68 18q-35 0 -43 -41h-57q8 46 32 76q30 37 72 37q32 0 81 -20q42 -18 62 -18q39 0 50 44zM199 2l-196 515h125l135 -386h2l131 386h119l-201 -545q-38 -94 -60 -123q-44 -54 -123 -54q-40 0 -79 6v96
q41 -7 54 -7q59 0 80 72z" />
    <glyph glyph-name="endash" unicode="&#x2013;" horiz-adv-x="500" 
d="M0 218v108h500v-108h-500z" />
    <glyph glyph-name="emdash" unicode="&#x2014;" horiz-adv-x="1000" 
d="M130 218v108h740v-108h-740z" />
    <glyph glyph-name="quoteleft" unicode="&#x2018;" 
d="M202 714v-58q-61 -22 -61 -89h61v-135h-125v135q0 108 125 147z" />
    <glyph glyph-name="quoteright" unicode="&#x2019;" 
d="M77 432v58q61 9 61 89h-61v135h125v-135q0 -58 -34 -98q-36 -42 -91 -49z" />
    <glyph glyph-name="quotesinglbase" unicode="&#x201a;" 
d="M77 -147v58q61 22 61 89h-61v135h125v-135q0 -55 -37 -95q-36 -39 -88 -52z" />
    <glyph glyph-name="quotedblleft" unicode="&#x201c;" horiz-adv-x="444" 
d="M384 714v-58q-61 -22 -61 -89h61v-135h-125v135q0 108 125 147zM185 714v-58q-61 -22 -61 -89h61v-135h-125v135q0 108 125 147z" />
    <glyph glyph-name="quotedblright" unicode="&#x201d;" horiz-adv-x="444" 
d="M259 432v58q61 22 61 89h-61v135h125v-135q0 -55 -37 -95q-36 -39 -88 -52zM60 432v58q61 22 61 89h-61v135h125v-135q0 -55 -37 -95q-36 -39 -88 -52z" />
    <glyph glyph-name="quotedblbase" unicode="&#x201e;" horiz-adv-x="444" 
d="M259 -147v58q61 22 61 89h-61v135h125v-135q0 -55 -37 -95q-36 -39 -88 -52zM60 -147v58q61 22 61 89h-61v135h125v-135q0 -55 -37 -95q-36 -39 -88 -52z" />
    <glyph glyph-name="dagger" unicode="&#x2020;" horiz-adv-x="556" 
d="M221 -160v582h-191v95h191v197h114v-197h191v-95h-191v-582h-114z" />
    <glyph glyph-name="daggerdbl" unicode="&#x2021;" horiz-adv-x="556" 
d="M221 -160v197h-191v95h191v290h-191v95h191v197h114v-197h191v-95h-191v-290h191v-95h-191v-197h-114z" />
    <glyph glyph-name="bullet" unicode="&#x2022;" horiz-adv-x="500" 
d="M124 483q52 52 126 52q75 0 127 -52t52 -126q0 -75 -52 -127t-127 -52q-74 0 -126 52t-52 127q0 74 52 126z" />
    <glyph glyph-name="ellipsis" unicode="&#x2026;" horiz-adv-x="1000" 
d="M763 0v135h139v-135h-139zM430 0v135h139v-135h-139zM97 0v135h139v-135h-139z" />
    <glyph glyph-name="perthousand" unicode="&#x2030;" horiz-adv-x="1148" 
d="M165 -24l398 748h73l-400 -748h-71zM201 439v-65q-61 10 -93 60q-26 43 -26 101q0 77 35 126q41 53 114 53q74 0 113 -53q36 -48 36 -126q0 -58 -26 -101q-32 -50 -93 -60v65q34 19 34 93q0 122 -64 122t-64 -122q0 -74 34 -93zM545 55v-65q-61 10 -93 60q-26 43 -26 101
q0 77 35 126q41 53 114 53q74 0 113 -53q36 -48 36 -126q0 -58 -26 -101q-32 -50 -93 -60v65q34 19 34 93q0 122 -64 122t-64 -122q0 -74 34 -93zM887 55v-65q-61 10 -92 61q-26 43 -26 100q0 77 35 126q41 53 114 53q72 0 113 -53q36 -48 36 -126q0 -57 -27 -101
q-32 -50 -93 -60v65q35 20 35 93q0 122 -64 122t-64 -122q0 -74 33 -93z" />
    <glyph glyph-name="guilsinglleft" unicode="&#x2039;" horiz-adv-x="259" 
d="M205 93l-155 123v112l155 123v-103l-95 -76l95 -76v-103z" />
    <glyph glyph-name="guilsinglright" unicode="&#x203a;" horiz-adv-x="259" 
d="M54 451l155 -123v-112l-155 -123v103l95 76l-95 76v103z" />
    <glyph glyph-name="fraction" unicode="&#x2044;" horiz-adv-x="167" 
d="M-165 -24l419 748h78l-418 -748h-79z" />
    <glyph glyph-name="Euro" unicode="&#x20ac;" horiz-adv-x="556" 
d="M567 652l-46 -91q-64 64 -140 64q-67 0 -112 -53q-37 -46 -51 -117h264l-26 -64h-245q-1 -2 -1 -14v-23q0 -29 1 -31h231l-25 -63h-201q12 -81 51 -127q45 -57 122 -57q52 0 83 16q30 15 68 50v-111q-68 -44 -151 -44q-134 0 -209 82q-65 71 -81 191h-77l27 63h45
q-2 24 -2 32l2 36h-72l26 64h53q25 115 91 182q77 77 197 77q86 0 178 -62z" />
    <glyph glyph-name="afii61289" unicode="&#x2113;" horiz-adv-x="500" 
d="M402 106l38 -58q-71 -62 -155 -62q-69 0 -110 38q-40 37 -40 101v70l-57 -53h-2l-39 60l97 85v246q0 84 46 136q45 52 115 52q61 0 97 -39q37 -38 37 -103q0 -143 -183 -310v-126q0 -75 66 -75q41 0 88 38h2zM326 625q-14 21 -32 21q-48 0 -48 -92v-190q92 101 92 208
q0 32 -12 53z" />
    <glyph glyph-name="trademark" unicode="&#x2122;" horiz-adv-x="990" 
d="M591 714l113 -292l112 292h115v-412h-75v322h-2l-123 -322h-56l-123 322h-2v-322h-75v412h116zM391 714v-65h-126v-347h-80v347h-126v65h332z" />
    <glyph glyph-name="Omega" unicode="&#x2126;" horiz-adv-x="757" 
d="M698 0h-272v188q75 15 119 75q41 58 41 137q0 93 -59 157q-62 65 -154 65q-93 0 -155 -65q-59 -65 -59 -159q0 -172 158 -210v-188h-271v91h183v47q-183 60 -183 268q0 136 96 227q92 88 230 88q137 0 231 -86q95 -89 95 -226q0 -97 -45 -168q-49 -76 -139 -103v-47h184
v-91z" />
    <glyph glyph-name="estimated" unicode="&#x212e;" horiz-adv-x="600" 
d="M561 259h-404v-181q59 -59 145 -59q122 0 193 120l35 -21q-87 -135 -228 -135q-114 0 -188 80q-70 77 -70 196q0 120 70 196q72 80 188 80q115 0 187 -77q70 -76 72 -199zM157 295h291v145q-63 60 -147 60t-144 -60v-145z" />
    <glyph glyph-name="partialdiff" unicode="&#x2202;" horiz-adv-x="548" 
d="M397 264l-1 23q-57 67 -129 67q-59 0 -94 -44q-31 -40 -31 -101q0 -60 28 -97q32 -44 89 -44q65 0 106 68q35 59 32 128zM255 -12q-97 0 -157 66q-59 64 -59 161q0 95 58 156q59 63 154 63q80 0 147 -58l1 30q3 88 -32 153q-43 79 -125 79q-56 0 -118 -48l-57 66
q83 65 171 65q140 0 211 -116q58 -94 58 -246q0 -371 -252 -371z" />
    <glyph glyph-name="Delta" unicode="&#x2206;" horiz-adv-x="683" 
d="M524 98l-190 490l-180 -490h370zM675 0h-666l272 712h110z" />
    <glyph glyph-name="product" unicode="&#x220f;" horiz-adv-x="737" 
d="M674 -214h-108v902h-396v-902h-107v1000h611v-1000z" />
    <glyph glyph-name="summation" unicode="&#x2211;" horiz-adv-x="643" 
d="M618 -214h-593v86l306 419l-293 411v84h567v-98h-424l279 -396l-297 -409h455v-97z" />
    <glyph glyph-name="minus" unicode="&#x2212;" horiz-adv-x="600" 
d="M552 202h-504v102h504v-102z" />
    <glyph glyph-name="uni2215" unicode="&#x2215;" horiz-adv-x="167" 
d="M-165 -24l419 748h78l-418 -748h-79z" />
    <glyph glyph-name="uni2219" unicode="&#x2219;" 
d="M87 354q22 22 52 22q31 0 53 -22t22 -52q0 -31 -22 -53q-23 -23 -53 -23t-53 23q-22 22 -22 53q0 29 23 52z" />
    <glyph glyph-name="radical" unicode="&#x221a;" horiz-adv-x="531" 
d="M543 786l-211 -1000h-101l-153 319l-50 -23l-40 85l143 65l133 -281l170 835h109z" />
    <glyph glyph-name="infinity" unicode="&#x221e;" horiz-adv-x="806" 
d="M208 344q-34 0 -57 -26q-21 -24 -21 -59q0 -37 21 -60q23 -23 60 -23q68 0 137 82q-86 86 -140 86zM654 320q-22 25 -59 25q-49 0 -137 -88q76 -82 140 -82q36 0 57 24q20 25 20 60q0 39 -21 61zM718 135q-46 -52 -122 -52q-91 0 -193 112q-110 -110 -192 -110
q-75 0 -122 50q-45 49 -45 125q0 75 44 125q46 51 120 51q93 0 195 -118q104 119 194 119q73 0 120 -50q44 -50 44 -125q0 -78 -43 -127z" />
    <glyph glyph-name="integral" unicode="&#x222b;" horiz-adv-x="600" 
d="M459 678q-16 -14 -36 -14q-33 0 -48 33q-15 32 -23 32q-19 0 -19 -32l2 -133l1 -524q0 -119 -16 -166q-30 -88 -125 -88q-38 0 -67 17q-35 20 -35 55q0 49 48 49q33 0 47 -33q15 -34 23 -34q19 0 19 49l-3 97v535q0 128 14 173q29 92 128 92q37 0 69 -17q36 -19 36 -56
q0 -21 -15 -35z" />
    <glyph glyph-name="approxequal" unicode="&#x2248;" horiz-adv-x="593" 
d="M496 241h67q-17 -167 -145 -167q-41 0 -137 35q-93 34 -120 34q-54 0 -65 -69h-68q8 72 39 115q38 53 104 53q43 0 132 -33q89 -34 129 -34q50 0 64 66zM497 444h68q-17 -167 -145 -167q-41 0 -137 35q-93 34 -120 34q-51 0 -65 -69h-68q16 168 143 168q42 0 132 -33
q90 -34 129 -34q50 0 63 66z" />
    <glyph glyph-name="notequal" unicode="&#x2260;" horiz-adv-x="593" 
d="M556 99h-285l-78 -152l-89 46l55 106h-122v102h173l61 117h-234v101h285l77 152l89 -45l-54 -107h122v-101h-174l-60 -117h234v-102z" />
    <glyph glyph-name="lessequal" unicode="&#x2264;" horiz-adv-x="593" 
d="M556 -35h-519v101h519v-101zM556 100l-519 172v103l519 179v-107l-381 -123l381 -117v-107z" />
    <glyph glyph-name="greaterequal" unicode="&#x2265;" horiz-adv-x="593" 
d="M556 -35h-519v101h519v-101zM556 272l-519 -172v107l380 117l-380 123v107l519 -179v-103z" />
    <glyph glyph-name="lozenge" unicode="&#x25ca;" horiz-adv-x="593" 
d="M417 356l-122 290l-119 -290l119 -291zM520 356l-177 -391h-95l-176 391l176 391h95z" />
    <glyph glyph-name="uniF004" unicode="&#xf004;" 
d="M73 -149v99h131v-89q0 -79 -116 -84v38q40 6 45 36h-60z" />
    <glyph glyph-name="uniF004" unicode="&#xf6c3;" 
d="M73 -149v99h131v-89q0 -79 -116 -84v38q40 6 45 36h-60z" />
    <glyph glyph-name="uniF6BE" unicode="&#xf6be;" 
 />
    <glyph glyph-name="uniF6BE" unicode="&#xfb0f;" 
 />
    <glyph glyph-name="uniF8FF" unicode="&#xf8ff;" horiz-adv-x="512" 
d="M278 117h-56v67h56v-67zM271 234h-46l-2 17q0 56 13 81q14 27 46 59q50 48 50 83t-23 61q-23 24 -53 24q-71 0 -82 -95l-50 8q14 137 135 137q55 0 89 -36q35 -37 35 -95q0 -62 -63 -120q-37 -33 -43 -52q-6 -20 -6 -72zM50 50h412v617h-412v-617zM0 718h512v-718h-512
v718z" />
    <glyph glyph-name="Aacute.001" 
 />
    <glyph glyph-name="Acircumflex.001" 
 />
    <glyph glyph-name="Agrave.001" 
 />
    <glyph glyph-name="Atilde.001" 
 />
    <glyph glyph-name="Eacute.001" 
 />
    <glyph glyph-name="Ecircumflex.001" 
 />
    <glyph glyph-name="Egrave.001" 
 />
    <glyph glyph-name="Iacute.001" 
 />
    <glyph glyph-name="Igrave.001" 
 />
    <glyph glyph-name="Oacute.001" 
 />
    <glyph glyph-name="Ocircumflex.001" 
 />
    <glyph glyph-name="Ograve.001" 
 />
    <glyph glyph-name="Otilde.001" 
 />
    <glyph glyph-name="Uacute.001" 
 />
    <glyph glyph-name="Ugrave.001" 
 />
    <glyph glyph-name="Yacute.001" 
 />
    <glyph glyph-name="aacute.001" 
 />
    <glyph glyph-name="acircumflex.001" 
 />
    <glyph glyph-name="agrave.001" 
 />
    <glyph glyph-name="atilde.001" 
 />
    <glyph glyph-name="eacute.001" 
 />
    <glyph glyph-name="ecircumflex.001" 
 />
    <glyph glyph-name="egrave.001" 
 />
    <glyph glyph-name="iacute.001" 
 />
    <glyph glyph-name="igrave.001" 
 />
    <glyph glyph-name="oacute.001" 
 />
    <glyph glyph-name="ocircumflex.001" 
 />
    <glyph glyph-name="ograve.001" 
 />
    <glyph glyph-name="otilde.001" 
 />
    <glyph glyph-name="uacute.001" 
 />
    <glyph glyph-name="ugrave.001" 
 />
    <glyph glyph-name="yacute.001" 
 />
    <glyph glyph-name="_244" 
d="M205 714v-99h-131v89q0 79 116 84v-38q-40 -6 -45 -36h60z" />
    <glyph glyph-name="_248" horiz-adv-x="241" 
d="M70 571l32 143h125l-81 -143h-76z" />
    <glyph glyph-name="Abreve.001" 
 />
    <glyph glyph-name="Itilde.001" 
 />
    <glyph glyph-name="Utilde.001" 
 />
    <glyph glyph-name="abreve.001" 
 />
    <glyph glyph-name="dcroat.001" 
 />
    <glyph glyph-name="itilde.001" 
 />
    <glyph glyph-name="utilde.001" 
 />
    <glyph glyph-name="grave.case" horiz-adv-x="241" 
d="M-29 926h134l91 -143h-83z" />
    <glyph glyph-name="Dcroat.001" 
 />
    <glyph glyph-name="acute.case" horiz-adv-x="241" 
d="M45 783l90 143h135l-142 -143h-83z" />
    <glyph glyph-name="circumflex.case" horiz-adv-x="241" 
d="M120 873l-70 -90h-92l107 143h111l108 -143h-93z" />
    <glyph glyph-name="caron.case" horiz-adv-x="241" 
d="M283 926l-108 -143h-111l-107 143h92l70 -89l71 89h93z" />
    <glyph glyph-name="tilde.case" horiz-adv-x="241" 
d="M241 914h56q-9 -56 -33 -81q-28 -34 -78 -34q-32 0 -74 19q-44 18 -68 18q-35 0 -43 -41h-57q8 46 32 76q30 37 72 37q32 0 81 -20q42 -18 62 -18q39 0 50 44z" />
    <glyph glyph-name="dieresis.case" horiz-adv-x="241" 
d="M91 796h-114v108h114v-108zM149 904h114v-108h-114v108z" />
    <glyph glyph-name="macron.case" horiz-adv-x="241" 
d="M265 818h-288v65h288v-65z" />
    <glyph glyph-name="breve.case" horiz-adv-x="241" 
d="M-41 925h58q15 -76 107 -76q85 0 101 76h57q-16 -141 -166 -141q-145 0 -157 141z" />
    <glyph glyph-name="ring.case" horiz-adv-x="241" 
d="M79 810q17 -17 42 -17q26 0 43 17q17 19 17 44q0 27 -17 44t-43 17q-25 0 -42 -17q-18 -16 -18 -44q0 -26 18 -44zM48 780q-31 28 -31 74q0 45 31 75q29 28 73 28t73 -28q31 -30 31 -75q0 -46 -31 -74q-31 -29 -73 -29q-44 0 -73 29z" />
    <glyph glyph-name="hungarumlaut.case" horiz-adv-x="241" 
d="M164 783l90 143h136l-144 -143h-82zM-35 783l90 143h136l-144 -143h-82z" />
    <glyph glyph-name="dotaccent.case" horiz-adv-x="241" 
d="M178 796h-114v108h114v-108z" />
    </font>
</defs>
</svg>
